%TF.GenerationSoftware,KiCad,Pcbnew,7.0.2*%
%TF.CreationDate,2023-05-31T16:55:29+01:00*%
%TF.ProjectId,kat_control_board,6b61745f-636f-46e7-9472-6f6c5f626f61,rev?*%
%TF.SameCoordinates,Original*%
%TF.FileFunction,Paste,Top*%
%TF.FilePolarity,Positive*%
%FSLAX46Y46*%
G04 Gerber Fmt 4.6, Leading zero omitted, Abs format (unit mm)*
G04 Created by KiCad (PCBNEW 7.0.2) date 2023-05-31 16:55:29*
%MOMM*%
%LPD*%
G01*
G04 APERTURE LIST*
G04 Aperture macros list*
%AMRoundRect*
0 Rectangle with rounded corners*
0 $1 Rounding radius*
0 $2 $3 $4 $5 $6 $7 $8 $9 X,Y pos of 4 corners*
0 Add a 4 corners polygon primitive as box body*
4,1,4,$2,$3,$4,$5,$6,$7,$8,$9,$2,$3,0*
0 Add four circle primitives for the rounded corners*
1,1,$1+$1,$2,$3*
1,1,$1+$1,$4,$5*
1,1,$1+$1,$6,$7*
1,1,$1+$1,$8,$9*
0 Add four rect primitives between the rounded corners*
20,1,$1+$1,$2,$3,$4,$5,0*
20,1,$1+$1,$4,$5,$6,$7,0*
20,1,$1+$1,$6,$7,$8,$9,0*
20,1,$1+$1,$8,$9,$2,$3,0*%
%AMFreePoly0*
4,1,7,2.200000,0.087500,0.150000,0.087500,0.150000,-0.362500,-0.150000,-0.362500,-0.150000,0.362500,2.200000,0.362500,2.200000,0.087500,2.200000,0.087500,$1*%
%AMFreePoly1*
4,1,9,1.825000,0.255000,1.175000,0.255000,1.175000,-0.500000,0.500000,-0.500000,-0.500000,-0.500000,-1.000000,-0.500000,-1.000000,0.700000,1.825000,0.700000,1.825000,0.255000,1.825000,0.255000,$1*%
G04 Aperture macros list end*
%ADD10RoundRect,0.140000X-0.170000X0.140000X-0.170000X-0.140000X0.170000X-0.140000X0.170000X0.140000X0*%
%ADD11RoundRect,0.135000X0.135000X0.185000X-0.135000X0.185000X-0.135000X-0.185000X0.135000X-0.185000X0*%
%ADD12RoundRect,0.135000X-0.185000X0.135000X-0.185000X-0.135000X0.185000X-0.135000X0.185000X0.135000X0*%
%ADD13RoundRect,0.150000X-0.150000X0.512500X-0.150000X-0.512500X0.150000X-0.512500X0.150000X0.512500X0*%
%ADD14RoundRect,0.250000X-1.000000X-0.650000X1.000000X-0.650000X1.000000X0.650000X-1.000000X0.650000X0*%
%ADD15RoundRect,0.150000X0.150000X-0.650000X0.150000X0.650000X-0.150000X0.650000X-0.150000X-0.650000X0*%
%ADD16RoundRect,0.140000X0.170000X-0.140000X0.170000X0.140000X-0.170000X0.140000X-0.170000X-0.140000X0*%
%ADD17RoundRect,0.135000X0.185000X-0.135000X0.185000X0.135000X-0.185000X0.135000X-0.185000X-0.135000X0*%
%ADD18RoundRect,0.150000X-0.587500X-0.150000X0.587500X-0.150000X0.587500X0.150000X-0.587500X0.150000X0*%
%ADD19RoundRect,0.135000X-0.135000X-0.185000X0.135000X-0.185000X0.135000X0.185000X-0.135000X0.185000X0*%
%ADD20RoundRect,0.225000X0.250000X-0.225000X0.250000X0.225000X-0.250000X0.225000X-0.250000X-0.225000X0*%
%ADD21RoundRect,0.100000X-0.100000X0.637500X-0.100000X-0.637500X0.100000X-0.637500X0.100000X0.637500X0*%
%ADD22R,0.600000X1.450000*%
%ADD23R,0.300000X1.450000*%
%ADD24RoundRect,0.150000X0.150000X-0.587500X0.150000X0.587500X-0.150000X0.587500X-0.150000X-0.587500X0*%
%ADD25RoundRect,0.875000X-0.875000X-1.125000X0.875000X-1.125000X0.875000X1.125000X-0.875000X1.125000X0*%
%ADD26RoundRect,0.150000X0.512500X0.150000X-0.512500X0.150000X-0.512500X-0.150000X0.512500X-0.150000X0*%
%ADD27RoundRect,0.225000X-0.250000X0.225000X-0.250000X-0.225000X0.250000X-0.225000X0.250000X0.225000X0*%
%ADD28RoundRect,0.150000X0.150000X-0.512500X0.150000X0.512500X-0.150000X0.512500X-0.150000X-0.512500X0*%
%ADD29RoundRect,0.249999X-0.395001X-0.395001X0.395001X-0.395001X0.395001X0.395001X-0.395001X0.395001X0*%
%ADD30RoundRect,0.050000X-0.387500X-0.050000X0.387500X-0.050000X0.387500X0.050000X-0.387500X0.050000X0*%
%ADD31RoundRect,0.050000X-0.050000X-0.387500X0.050000X-0.387500X0.050000X0.387500X-0.050000X0.387500X0*%
%ADD32RoundRect,0.140000X0.140000X0.170000X-0.140000X0.170000X-0.140000X-0.170000X0.140000X-0.170000X0*%
%ADD33R,0.725000X0.300000*%
%ADD34FreePoly0,0.000000*%
%ADD35R,0.300000X0.725000*%
%ADD36R,0.300000X0.730000*%
%ADD37R,1.575000X1.050000*%
%ADD38R,1.150000X1.050000*%
%ADD39FreePoly1,0.000000*%
%ADD40R,0.580000X0.380000*%
%ADD41RoundRect,0.140000X-0.140000X-0.170000X0.140000X-0.170000X0.140000X0.170000X-0.140000X0.170000X0*%
%ADD42RoundRect,0.100000X0.637500X0.100000X-0.637500X0.100000X-0.637500X-0.100000X0.637500X-0.100000X0*%
%ADD43RoundRect,0.150000X-0.512500X-0.150000X0.512500X-0.150000X0.512500X0.150000X-0.512500X0.150000X0*%
%ADD44RoundRect,0.218750X0.256250X-0.218750X0.256250X0.218750X-0.256250X0.218750X-0.256250X-0.218750X0*%
%ADD45R,1.400000X1.200000*%
%ADD46RoundRect,0.150000X0.825000X0.150000X-0.825000X0.150000X-0.825000X-0.150000X0.825000X-0.150000X0*%
%ADD47RoundRect,0.187500X0.312500X0.187500X-0.312500X0.187500X-0.312500X-0.187500X0.312500X-0.187500X0*%
%ADD48RoundRect,0.187500X-0.312500X-0.187500X0.312500X-0.187500X0.312500X0.187500X-0.312500X0.187500X0*%
%ADD49RoundRect,0.200000X-0.275000X0.200000X-0.275000X-0.200000X0.275000X-0.200000X0.275000X0.200000X0*%
G04 APERTURE END LIST*
D10*
X56205000Y-34134000D03*
X56205000Y-35094000D03*
D11*
X67010000Y-43750000D03*
X65990000Y-43750000D03*
D12*
X42600000Y-42340000D03*
X42600000Y-43360000D03*
D11*
X67010000Y-42750000D03*
X65990000Y-42750000D03*
D13*
X72450000Y-21362500D03*
X70550000Y-21362500D03*
X71500000Y-23637500D03*
D11*
X39520000Y-30750000D03*
X38500000Y-30750000D03*
X39520000Y-27750000D03*
X38500000Y-27750000D03*
D14*
X48790417Y-179862500D03*
X52790417Y-179862500D03*
D15*
X48295000Y-22450000D03*
X49565000Y-22450000D03*
X50835000Y-22450000D03*
X52105000Y-22450000D03*
X52105000Y-15250000D03*
X50835000Y-15250000D03*
X49565000Y-15250000D03*
X48295000Y-15250000D03*
D16*
X51379000Y-25724000D03*
X51379000Y-24764000D03*
D17*
X70800000Y-16950000D03*
X70800000Y-15930000D03*
D18*
X58584583Y-172950000D03*
X58584583Y-174850000D03*
X60459583Y-173900000D03*
D17*
X72500000Y-47010000D03*
X72500000Y-45990000D03*
D11*
X39520000Y-29750000D03*
X38500000Y-29750000D03*
D18*
X39022083Y-172950000D03*
X39022083Y-174850000D03*
X40897083Y-173900000D03*
D19*
X61490000Y-22750000D03*
X62510000Y-22750000D03*
D11*
X62910000Y-45850000D03*
X61890000Y-45850000D03*
D12*
X48600000Y-42320000D03*
X48600000Y-43340000D03*
D10*
X50250000Y-39770000D03*
X50250000Y-40730000D03*
D16*
X71500000Y-46980000D03*
X71500000Y-46020000D03*
D17*
X70000000Y-43270000D03*
X70000000Y-42250000D03*
D20*
X72000000Y-50525000D03*
X72000000Y-48975000D03*
D19*
X54044000Y-34995000D03*
X55064000Y-34995000D03*
D21*
X48950000Y-34137500D03*
X48300000Y-34137500D03*
X47650000Y-34137500D03*
X47000000Y-34137500D03*
X46350000Y-34137500D03*
X45700000Y-34137500D03*
X45050000Y-34137500D03*
X44400000Y-34137500D03*
X43750000Y-34137500D03*
X43100000Y-34137500D03*
X43100000Y-39862500D03*
X43750000Y-39862500D03*
X44400000Y-39862500D03*
X45050000Y-39862500D03*
X45700000Y-39862500D03*
X46350000Y-39862500D03*
X47000000Y-39862500D03*
X47650000Y-39862500D03*
X48300000Y-39862500D03*
X48950000Y-39862500D03*
D14*
X74600000Y-183200000D03*
X78600000Y-183200000D03*
D11*
X39520000Y-24750000D03*
X38500000Y-24750000D03*
D22*
X67250000Y-20500000D03*
X66450000Y-20500000D03*
D23*
X65250000Y-20500000D03*
X64250000Y-20500000D03*
X63750000Y-20500000D03*
X62750000Y-20500000D03*
D22*
X61550000Y-20500000D03*
X60750000Y-20500000D03*
X60750000Y-20500000D03*
X61550000Y-20500000D03*
D23*
X62250000Y-20500000D03*
X63250000Y-20500000D03*
X64750000Y-20500000D03*
X65750000Y-20500000D03*
D22*
X66450000Y-20500000D03*
X67250000Y-20500000D03*
D11*
X39520000Y-23750000D03*
X38500000Y-23750000D03*
D18*
X47522083Y-172950000D03*
X47522083Y-174850000D03*
X49397083Y-173900000D03*
D24*
X52800000Y-42125000D03*
X54700000Y-42125000D03*
X53750000Y-40250000D03*
D25*
X67000000Y-57250000D03*
X76500000Y-57250000D03*
D26*
X33500000Y-44600000D03*
X33500000Y-43650000D03*
X33500000Y-42700000D03*
X31225000Y-42700000D03*
X31225000Y-43650000D03*
X31225000Y-44600000D03*
D11*
X39520000Y-28750000D03*
X38500000Y-28750000D03*
D27*
X64500000Y-47975000D03*
X64500000Y-49525000D03*
D28*
X30200000Y-33125000D03*
X31150000Y-33125000D03*
X32100000Y-33125000D03*
X32100000Y-30850000D03*
X31150000Y-30850000D03*
X30200000Y-30850000D03*
D12*
X30028749Y-175842500D03*
X30028749Y-176862500D03*
X45397083Y-173880000D03*
X45397083Y-174900000D03*
X31659583Y-172390000D03*
X31659583Y-173410000D03*
D16*
X60777000Y-25569000D03*
X60777000Y-24609000D03*
D29*
X55240000Y-27680000D03*
X55240000Y-29280000D03*
X56840000Y-27680000D03*
X56840000Y-29280000D03*
D30*
X52602500Y-25880000D03*
X52602500Y-26280000D03*
X52602500Y-26680000D03*
X52602500Y-27080000D03*
X52602500Y-27480000D03*
X52602500Y-27880000D03*
X52602500Y-28280000D03*
X52602500Y-28680000D03*
X52602500Y-29080000D03*
X52602500Y-29480000D03*
X52602500Y-29880000D03*
X52602500Y-30280000D03*
X52602500Y-30680000D03*
X52602500Y-31080000D03*
D31*
X53440000Y-31917500D03*
X53840000Y-31917500D03*
X54240000Y-31917500D03*
X54640000Y-31917500D03*
X55040000Y-31917500D03*
X55440000Y-31917500D03*
X55840000Y-31917500D03*
X56240000Y-31917500D03*
X56640000Y-31917500D03*
X57040000Y-31917500D03*
X57440000Y-31917500D03*
X57840000Y-31917500D03*
X58240000Y-31917500D03*
X58640000Y-31917500D03*
D30*
X59477500Y-31080000D03*
X59477500Y-30680000D03*
X59477500Y-30280000D03*
X59477500Y-29880000D03*
X59477500Y-29480000D03*
X59477500Y-29080000D03*
X59477500Y-28680000D03*
X59477500Y-28280000D03*
X59477500Y-27880000D03*
X59477500Y-27480000D03*
X59477500Y-27080000D03*
X59477500Y-26680000D03*
X59477500Y-26280000D03*
X59477500Y-25880000D03*
D31*
X58640000Y-25042500D03*
X58240000Y-25042500D03*
X57840000Y-25042500D03*
X57440000Y-25042500D03*
X57040000Y-25042500D03*
X56640000Y-25042500D03*
X56240000Y-25042500D03*
X55840000Y-25042500D03*
X55440000Y-25042500D03*
X55040000Y-25042500D03*
X54640000Y-25042500D03*
X54240000Y-25042500D03*
X53840000Y-25042500D03*
X53440000Y-25042500D03*
D19*
X79690000Y-26750000D03*
X80710000Y-26750000D03*
D32*
X51125000Y-29737200D03*
X50165000Y-29737200D03*
D14*
X38826251Y-179862500D03*
X42826251Y-179862500D03*
D33*
X66125000Y-47940000D03*
X66125000Y-48390000D03*
X66125000Y-49290000D03*
X66125000Y-49740000D03*
D34*
X66587500Y-50702500D03*
D35*
X67037500Y-50702500D03*
X67487500Y-50702500D03*
X68187500Y-50702500D03*
X68637500Y-50702500D03*
D36*
X69087500Y-50700000D03*
D33*
X70000000Y-50190000D03*
X70000000Y-49740000D03*
X70000000Y-49290000D03*
X70000000Y-48840000D03*
X70000000Y-48390000D03*
X70000000Y-47940000D03*
X70000000Y-47490000D03*
D35*
X69537500Y-46827500D03*
X69087500Y-46827500D03*
X68637500Y-46827500D03*
X68187500Y-46827500D03*
X67487500Y-46827500D03*
X67037500Y-46827500D03*
X66587500Y-46827500D03*
D37*
X68550000Y-48015000D03*
D38*
X66887500Y-48015000D03*
D39*
X67312500Y-49540000D03*
D40*
X69047500Y-49755000D03*
D41*
X60833000Y-29661000D03*
X61793000Y-29661000D03*
D12*
X45600000Y-42320000D03*
X45600000Y-43340000D03*
X43600000Y-42320000D03*
X43600000Y-43340000D03*
D16*
X73800000Y-24000000D03*
X73800000Y-23040000D03*
D17*
X51500000Y-38010000D03*
X51500000Y-36990000D03*
X59900000Y-35760000D03*
X59900000Y-34740000D03*
D19*
X79690000Y-27750000D03*
X80710000Y-27750000D03*
D16*
X63500000Y-37960000D03*
X63500000Y-37000000D03*
D17*
X74800000Y-16960000D03*
X74800000Y-15940000D03*
D42*
X47862500Y-30000000D03*
X47862500Y-29350000D03*
X47862500Y-28700000D03*
X47862500Y-28050000D03*
X47862500Y-27400000D03*
X47862500Y-26750000D03*
X47862500Y-26100000D03*
X47862500Y-25450000D03*
X47862500Y-24800000D03*
X47862500Y-24150000D03*
X42137500Y-24150000D03*
X42137500Y-24800000D03*
X42137500Y-25450000D03*
X42137500Y-26100000D03*
X42137500Y-26750000D03*
X42137500Y-27400000D03*
X42137500Y-28050000D03*
X42137500Y-28700000D03*
X42137500Y-29350000D03*
X42137500Y-30000000D03*
D43*
X49725000Y-51950000D03*
X49725000Y-52900000D03*
X49725000Y-53850000D03*
X52000000Y-53850000D03*
X52000000Y-52900000D03*
X52000000Y-51950000D03*
D19*
X55339583Y-172500000D03*
X56359583Y-172500000D03*
D12*
X49600000Y-42320000D03*
X49600000Y-43340000D03*
D10*
X58110000Y-36039000D03*
X58110000Y-36999000D03*
D19*
X79680000Y-25750000D03*
X80700000Y-25750000D03*
D17*
X69000000Y-43260000D03*
X69000000Y-42240000D03*
D12*
X46500000Y-20980000D03*
X46500000Y-22000000D03*
D17*
X72800000Y-16960000D03*
X72800000Y-15940000D03*
D12*
X44500000Y-20990000D03*
X44500000Y-22010000D03*
D17*
X71800000Y-16950000D03*
X71800000Y-15930000D03*
D18*
X32153749Y-174912500D03*
X32153749Y-176812500D03*
X34028749Y-175862500D03*
D14*
X58459583Y-179862500D03*
X62459583Y-179862500D03*
D41*
X58770000Y-23750000D03*
X59730000Y-23750000D03*
X41770000Y-31250000D03*
X42730000Y-31250000D03*
D12*
X56459583Y-173880000D03*
X56459583Y-174900000D03*
D16*
X54000000Y-21980000D03*
X54000000Y-21020000D03*
D28*
X55600000Y-17525000D03*
X56550000Y-17525000D03*
X57500000Y-17525000D03*
X57500000Y-15250000D03*
X56550000Y-15250000D03*
X55600000Y-15250000D03*
D12*
X37022083Y-173950000D03*
X37022083Y-174970000D03*
D16*
X55000000Y-21980000D03*
X55000000Y-21020000D03*
D11*
X66760000Y-23250000D03*
X65740000Y-23250000D03*
D17*
X71000000Y-43260000D03*
X71000000Y-42240000D03*
D43*
X64200000Y-25100000D03*
X64200000Y-26050000D03*
X64200000Y-27000000D03*
X66475000Y-27000000D03*
X66475000Y-26050000D03*
X66475000Y-25100000D03*
D12*
X44600000Y-42320000D03*
X44600000Y-43340000D03*
D16*
X67000000Y-45730000D03*
X67000000Y-44770000D03*
X52800000Y-37780000D03*
X52800000Y-36820000D03*
D32*
X58580000Y-35050000D03*
X57620000Y-35050000D03*
D19*
X44339583Y-172500000D03*
X45359583Y-172500000D03*
D44*
X78300000Y-19437500D03*
X78300000Y-17862500D03*
D45*
X54300000Y-38170000D03*
X56500000Y-38170000D03*
X56500000Y-36470000D03*
X54300000Y-36470000D03*
D14*
X30028749Y-179862500D03*
X34028749Y-179862500D03*
D11*
X45020000Y-19950000D03*
X44000000Y-19950000D03*
D19*
X79690000Y-29750000D03*
X80710000Y-29750000D03*
X77590000Y-16550000D03*
X78610000Y-16550000D03*
D17*
X73800000Y-16960000D03*
X73800000Y-15940000D03*
D46*
X70400000Y-38120000D03*
X70400000Y-36850000D03*
X70400000Y-35580000D03*
X70400000Y-34310000D03*
X70400000Y-33040000D03*
X70400000Y-31770000D03*
X70400000Y-30500000D03*
X70400000Y-29230000D03*
X65450000Y-29230000D03*
X65450000Y-30500000D03*
X65450000Y-31770000D03*
X65450000Y-33040000D03*
X65450000Y-34310000D03*
X65450000Y-35580000D03*
X65450000Y-36850000D03*
X65450000Y-38120000D03*
D11*
X39520000Y-26750000D03*
X38500000Y-26750000D03*
D17*
X66000000Y-45760000D03*
X66000000Y-44740000D03*
D47*
X29000000Y-18375000D03*
X23000000Y-18375000D03*
X29000000Y-14625000D03*
X23000000Y-14625000D03*
D44*
X59300000Y-43750000D03*
X59300000Y-42175000D03*
D12*
X38659583Y-170600000D03*
X38659583Y-171620000D03*
D26*
X34200000Y-23050000D03*
X34200000Y-22100000D03*
X34200000Y-21150000D03*
X31925000Y-21150000D03*
X31925000Y-22100000D03*
X31925000Y-23050000D03*
D12*
X47600000Y-42330000D03*
X47600000Y-43350000D03*
D48*
X30300000Y-14625000D03*
X36300000Y-14625000D03*
X30300000Y-18375000D03*
X36300000Y-18375000D03*
D41*
X70790000Y-19750000D03*
X71750000Y-19750000D03*
D19*
X79680000Y-28750000D03*
X80700000Y-28750000D03*
D49*
X57750000Y-20850000D03*
X57750000Y-22500000D03*
X56250000Y-20675000D03*
X56250000Y-22325000D03*
D11*
X39510000Y-25750000D03*
X38490000Y-25750000D03*
D47*
X43600000Y-18400000D03*
X37600000Y-18400000D03*
X43600000Y-14650000D03*
X37600000Y-14650000D03*
D11*
X42210000Y-22650000D03*
X41190000Y-22650000D03*
D41*
X48420000Y-13650000D03*
X49380000Y-13650000D03*
D11*
X60920000Y-45850000D03*
X59900000Y-45850000D03*
D12*
X46600000Y-42330000D03*
X46600000Y-43350000D03*
M02*
