M48
; DRILL file {KiCad 7.0.2} date Wed May 31 16:55:31 2023
; FORMAT={-:-/ absolute / metric / decimal}
; #@! TF.CreationDate,2023-05-31T16:55:31+01:00
; #@! TF.GenerationSoftware,Kicad,Pcbnew,7.0.2
; #@! TF.FileFunction,Plated,1,4,PTH
FMAT,2
METRIC
; #@! TA.AperFunction,Plated,PTH,ViaDrill
T1C0.300
; #@! TA.AperFunction,Plated,PTH,ComponentDrill
T2C0.300
; #@! TA.AperFunction,Plated,PTH,ViaDrill
T3C0.400
; #@! TA.AperFunction,Plated,PTH,ViaDrill
T4C0.450
; #@! TA.AperFunction,Plated,PTH,ComponentDrill
T5C0.500
; #@! TA.AperFunction,Plated,PTH,ViaDrill
T6C0.508
; #@! TA.AperFunction,Plated,PTH,ComponentDrill
T7C0.600
; #@! TA.AperFunction,Plated,PTH,ComponentDrill
T8C0.800
; #@! TA.AperFunction,Plated,PTH,ComponentDrill
T9C1.000
; #@! TA.AperFunction,Plated,PTH,ComponentDrill
T10C1.400
; #@! TA.AperFunction,Plated,PTH,ViaDrill
T11C1.700
; #@! TA.AperFunction,Plated,PTH,ComponentDrill
T12C3.500
%
G90
G05
T1
X29.3Y-29.25
X30.2Y-34.15
X30.3Y-43.65
X30.7Y-42.15
X30.9Y-23.15
X30.9Y-26.75
X31.2Y-30.15
X31.2Y-34.15
X31.7Y-19.35
X32.1Y-20.55
X32.1Y-34.25
X32.35Y-48.5
X32.4Y-25.75
X32.6Y-49.75
X32.7Y-30.45
X34.5Y-42.75
X34.5Y-43.65
X34.8Y-24.75
X35.1Y-45.25
X35.2Y-21.15
X38.0Y-48.35
X38.6Y-47.75
X39.4Y-47.05
X42.5Y-20.25
X42.5Y-21.95
X46.4Y-19.35
X46.95Y-47.3
X48.7Y-51.95
X48.7Y-54.25
X49.6Y-16.45
X50.25Y-38.0
X50.9Y-16.45
X51.1Y-39.25
X51.7Y-51.35
X53.0Y-53.95
X54.0Y-20.5
X55.0Y-20.5
X55.04Y-31.174
X56.5Y-18.75
X56.7Y-19.65
X56.8Y-45.4
X57.1Y-33.25
X57.3Y-46.4
X57.7Y-33.8
X57.923Y-24.233
X58.2Y-19.95
X58.4Y-44.15
X58.491Y-34.106
X58.8Y-38.7
X59.3Y-33.95
X59.4Y-41.45
X60.0Y-24.25
X60.955Y-27.35
X61.568Y-21.849
X66.4Y-22.1
X74.3Y-21.95
X75.4Y-21.95
X75.8Y-15.95
X76.4Y-21.95
X77.25Y-21.65
X78.2Y-21.95
T2
X66.858Y-49.215
X66.907Y-48.015
X67.543Y-49.7
X68.168Y-49.205
X68.552Y-48.005
T3
X28.5Y-37.7
X29.6Y-38.4
X30.3Y-45.6
X40.6Y-14.65
X41.0Y-31.5
X42.25Y-34.0
X43.5Y-31.25
X46.75Y-23.5
X47.5Y-15.35
X47.75Y-30.75
X48.8Y-52.9
X50.0Y-39.0
X50.2Y-14.05
X50.25Y-34.0
X50.5Y-25.731
X50.5Y-41.5
X51.9Y-43.55
X51.9Y-44.65
X52.1Y-21.25
X53.2Y-44.85
X53.2Y-52.9
X53.7Y-45.85
X55.0Y-43.5
X55.062Y-27.502
X55.062Y-28.518
X55.062Y-29.534
X56.078Y-27.502
X56.078Y-29.534
X56.1Y-42.15
X56.3Y-23.6
X56.5Y-14.25
X56.8Y-41.05
X56.9Y-35.15
X56.9Y-43.05
X57.0Y-39.95
X57.094Y-27.502
X57.094Y-28.518
X57.094Y-29.534
X59.0Y-23.0
X59.2Y-46.55
X60.6Y-26.55
X61.0Y-30.15
X61.5Y-26.05
X61.5Y-53.75
X61.5Y-54.75
X61.5Y-55.75
X61.5Y-56.75
X61.5Y-60.75
X61.516Y-24.987
X62.3Y-37.5
X62.5Y-30.25
X62.5Y-49.75
X62.5Y-52.75
X62.5Y-53.75
X62.5Y-54.75
X62.5Y-55.75
X62.5Y-56.75
X62.5Y-59.75
X62.5Y-60.75
X62.8Y-42.95
X63.013Y-44.563
X63.1Y-26.0
X63.5Y-36.0
X63.5Y-49.75
X63.5Y-50.75
X63.5Y-51.75
X63.5Y-52.75
X63.5Y-53.75
X63.5Y-54.75
X63.5Y-55.75
X63.5Y-56.75
X64.1Y-33.0
X65.9Y-41.95
X66.7Y-36.8
X66.8Y-34.3
X66.8Y-35.6
X67.3Y-28.3
X67.5Y-26.0
X68.1Y-38.0
X68.5Y-41.75
X72.1Y-30.5
X72.1Y-34.3
X72.5Y-42.45
X73.3Y-32.9
X74.5Y-31.75
X74.5Y-32.75
X74.5Y-33.75
X74.5Y-34.75
X74.5Y-35.75
X74.5Y-36.75
X74.5Y-37.75
X74.5Y-38.75
X74.5Y-39.75
X74.5Y-40.75
X74.5Y-41.75
X74.5Y-42.75
X74.5Y-43.75
X74.5Y-44.75
X74.5Y-45.75
X74.5Y-46.75
X74.5Y-47.75
X74.5Y-48.75
X74.5Y-49.75
X74.5Y-50.75
X74.5Y-51.75
X74.5Y-52.75
X74.5Y-53.75
X74.5Y-54.75
X75.5Y-30.75
X75.5Y-31.75
X75.5Y-32.75
X75.5Y-33.75
X75.5Y-34.75
X75.5Y-35.75
X75.5Y-36.75
X75.5Y-37.75
X75.5Y-38.75
X75.5Y-39.75
X75.5Y-40.75
X75.5Y-42.75
X75.5Y-43.75
X75.5Y-44.75
X75.5Y-45.75
X75.5Y-46.75
X75.5Y-49.75
X75.5Y-50.75
X75.5Y-51.75
X75.5Y-52.75
X75.5Y-53.75
X75.5Y-54.75
X76.5Y-30.75
X76.5Y-31.75
X76.5Y-32.75
X76.5Y-33.75
X76.5Y-34.75
X76.5Y-35.75
X76.5Y-36.75
X76.5Y-37.75
X76.5Y-38.75
X76.5Y-39.75
X76.5Y-42.75
X76.5Y-43.75
X76.5Y-44.75
X76.5Y-45.75
X76.5Y-46.75
X76.5Y-49.75
X76.5Y-50.75
X76.5Y-51.75
X76.5Y-52.75
X76.5Y-53.75
X76.5Y-54.75
X77.5Y-52.75
X77.5Y-53.75
X77.5Y-54.75
X78.5Y-20.35
X78.5Y-30.75
X78.5Y-31.75
X78.5Y-32.75
X78.5Y-33.75
X78.5Y-34.75
X78.5Y-35.75
X78.5Y-36.75
X78.5Y-37.75
X78.5Y-38.75
X78.5Y-39.75
X78.5Y-42.75
X78.5Y-43.75
X78.5Y-44.75
X78.5Y-45.75
X78.5Y-46.75
X79.5Y-31.75
X79.5Y-32.75
X79.5Y-33.75
X79.5Y-34.75
X79.5Y-35.75
X79.5Y-36.75
X79.5Y-37.75
X79.5Y-38.75
X79.5Y-39.75
X79.5Y-42.75
X79.5Y-43.75
X79.5Y-44.75
X79.5Y-45.75
X79.5Y-46.75
X79.5Y-50.75
X79.5Y-51.75
X79.5Y-52.75
X79.5Y-53.75
X79.5Y-54.75
X79.5Y-55.75
X79.5Y-56.75
X79.5Y-57.75
X79.5Y-58.75
X80.5Y-32.75
X80.5Y-33.75
X80.5Y-34.75
X80.5Y-35.75
X80.5Y-36.75
X80.5Y-37.75
X80.5Y-38.75
X80.5Y-39.75
X80.5Y-40.75
X80.5Y-41.75
X80.5Y-42.75
X80.5Y-43.75
X80.5Y-44.75
X80.5Y-45.75
X80.5Y-46.75
X80.5Y-47.75
X80.5Y-48.75
X80.5Y-49.75
X80.5Y-50.75
X80.5Y-51.75
X80.5Y-52.75
X80.5Y-53.75
X80.5Y-54.75
X80.5Y-55.75
X80.5Y-56.75
X80.5Y-57.75
X80.5Y-58.75
X81.5Y-33.75
X81.5Y-34.75
X81.5Y-35.75
X81.5Y-36.75
X81.5Y-37.75
X81.5Y-38.75
X81.5Y-39.75
X81.5Y-40.75
X81.5Y-41.75
X81.5Y-42.75
X81.5Y-43.75
X81.5Y-44.75
X81.5Y-45.75
X81.5Y-46.75
X81.5Y-47.75
X81.5Y-48.75
X81.5Y-49.75
X81.5Y-50.75
X81.5Y-51.75
X81.5Y-52.75
X81.5Y-53.75
X81.5Y-54.75
X81.5Y-55.75
X81.5Y-56.75
X81.5Y-57.75
X81.5Y-58.75
T4
X69.294Y-45.5
X70.25Y-44.25
X71.5Y-45.0
X72.5Y-45.0
T5
X15.375Y-17.5
X15.375Y-192.0
X16.144Y-15.644
X16.144Y-19.356
X16.144Y-190.144
X16.144Y-193.856
X18.0Y-14.875
X18.0Y-20.125
X18.0Y-189.375
X18.0Y-194.625
X19.856Y-15.644
X19.856Y-19.356
X19.856Y-190.144
X19.856Y-193.856
X20.625Y-17.5
X20.625Y-192.0
X73.375Y-90.0
X74.144Y-88.144
X74.144Y-91.856
X76.0Y-87.375
X76.0Y-92.625
X77.856Y-88.144
X77.856Y-91.856
X78.625Y-90.0
X89.625Y-192.144
X90.394Y-190.288
X90.394Y-194.0
X92.25Y-189.519
X92.25Y-194.769
X94.106Y-190.288
X94.106Y-194.0
X94.875Y-192.144
T6
X37.4Y-152.017
X37.4Y-157.85
X38.8Y-151.85
X38.8Y-157.75
X40.2Y-151.75
X40.4Y-157.75
X41.4Y-151.65
X41.9Y-157.65
X46.0Y-20.5
X49.5Y-29.75
X50.204Y-30.628
X50.5Y-24.755
X52.3Y-39.25
X53.1Y-36.1
X53.386Y-16.58
X54.097Y-17.494
X55.443Y-34.106
X57.4Y-38.85
X72.5Y-48.0
T8
X59.068Y-51.5
X59.068Y-58.5
X61.568Y-51.5
X61.568Y-58.5
X76.5Y-48.5
X76.568Y-41.5
X79.0Y-48.5
X79.068Y-41.5
T9
X40.38Y-71.95
X40.38Y-74.49
X40.38Y-77.03
X40.38Y-79.57
X40.38Y-82.11
X40.38Y-84.65
X40.38Y-87.19
X40.38Y-89.73
X40.38Y-92.27
X40.38Y-94.81
X40.38Y-97.35
X40.38Y-99.89
X40.38Y-102.43
X40.38Y-104.97
X40.38Y-107.51
X40.38Y-110.05
X40.38Y-112.59
X40.38Y-115.13
X40.38Y-117.67
X40.38Y-120.21
X40.38Y-122.75
X40.38Y-125.29
X40.38Y-127.83
X40.38Y-130.37
X40.38Y-132.91
X40.38Y-135.45
X40.38Y-137.99
X40.38Y-140.53
X40.38Y-143.07
X40.38Y-145.61
X41.175Y-55.05
X42.92Y-71.95
X42.92Y-74.49
X42.92Y-77.03
X42.92Y-79.57
X42.92Y-82.11
X42.92Y-84.65
X42.92Y-87.19
X42.92Y-89.73
X42.92Y-92.27
X42.92Y-94.81
X42.92Y-97.35
X42.92Y-99.89
X42.92Y-102.43
X42.92Y-104.97
X42.92Y-107.51
X42.92Y-110.05
X42.92Y-112.59
X42.92Y-115.13
X42.92Y-117.67
X42.92Y-120.21
X42.92Y-122.75
X42.92Y-125.29
X42.92Y-127.83
X42.92Y-130.37
X42.92Y-132.91
X42.92Y-135.45
X42.92Y-137.99
X42.92Y-140.53
X42.92Y-143.07
X42.92Y-145.61
X43.715Y-55.05
X46.255Y-55.05
X48.0Y-71.95
X48.0Y-74.49
X48.0Y-77.03
X48.0Y-79.57
X48.0Y-82.11
X48.0Y-84.65
X48.0Y-87.19
X48.0Y-89.73
X48.0Y-92.27
X48.0Y-94.81
X48.0Y-97.35
X48.0Y-99.89
X48.0Y-102.43
X48.0Y-104.97
X48.0Y-107.51
X48.0Y-110.05
X48.0Y-112.59
X48.0Y-115.13
X48.0Y-117.67
X48.0Y-120.21
X48.0Y-122.75
X48.0Y-125.29
X48.0Y-127.83
X48.0Y-130.37
X48.0Y-132.91
X48.0Y-135.45
X48.0Y-137.99
X48.0Y-140.53
X48.0Y-143.07
X48.0Y-145.61
X50.54Y-71.95
X50.54Y-74.49
X50.54Y-77.03
X50.54Y-79.57
X50.54Y-82.11
X50.54Y-84.65
X50.54Y-87.19
X50.54Y-89.73
X50.54Y-92.27
X50.54Y-94.81
X50.54Y-97.35
X50.54Y-99.89
X50.54Y-102.43
X50.54Y-104.97
X50.54Y-107.51
X50.54Y-110.05
X50.54Y-112.59
X50.54Y-115.13
X50.54Y-117.67
X50.54Y-120.21
X50.54Y-122.75
X50.54Y-125.29
X50.54Y-127.83
X50.54Y-130.37
X50.54Y-132.91
X50.54Y-135.45
X50.54Y-137.99
X50.54Y-140.53
X50.54Y-143.07
X50.54Y-145.61
X55.62Y-71.95
X55.62Y-74.49
X55.62Y-77.03
X55.62Y-79.57
X55.62Y-82.11
X55.62Y-84.65
X55.62Y-87.19
X55.62Y-89.73
X55.62Y-92.27
X55.62Y-94.81
X55.62Y-97.35
X55.62Y-99.89
X55.62Y-102.43
X55.62Y-104.97
X55.62Y-107.51
X55.62Y-110.05
X55.62Y-112.59
X55.62Y-115.13
X55.62Y-117.67
X55.62Y-120.21
X55.62Y-122.75
X55.62Y-125.29
X55.62Y-127.83
X55.62Y-130.37
X55.62Y-132.91
X55.62Y-135.45
X55.62Y-137.99
X55.62Y-140.53
X55.62Y-143.07
X55.62Y-145.61
X58.16Y-71.95
X58.16Y-74.49
X58.16Y-77.03
X58.16Y-79.57
X58.16Y-82.11
X58.16Y-84.65
X58.16Y-87.19
X58.16Y-89.73
X58.16Y-92.27
X58.16Y-94.81
X58.16Y-97.35
X58.16Y-99.89
X58.16Y-102.43
X58.16Y-104.97
X58.16Y-107.51
X58.16Y-110.05
X58.16Y-112.59
X58.16Y-115.13
X58.16Y-117.67
X58.16Y-120.21
X58.16Y-122.75
X58.16Y-125.29
X58.16Y-127.83
X58.16Y-130.37
X58.16Y-132.91
X58.16Y-135.45
X58.16Y-137.99
X58.16Y-140.53
X58.16Y-143.07
X58.16Y-145.61
X63.24Y-71.95
X63.24Y-74.49
X63.24Y-77.03
X63.24Y-79.57
X63.24Y-82.11
X63.24Y-84.65
X63.24Y-87.19
X63.24Y-89.73
X63.24Y-92.27
X63.24Y-94.81
X63.24Y-97.35
X63.24Y-99.89
X63.24Y-102.43
X63.24Y-104.97
X63.24Y-107.51
X63.24Y-110.05
X63.24Y-112.59
X63.24Y-115.13
X63.24Y-117.67
X63.24Y-120.21
X63.24Y-122.75
X63.24Y-125.29
X63.24Y-127.83
X63.24Y-130.37
X63.24Y-132.91
X63.24Y-135.45
X63.24Y-137.99
X63.24Y-140.53
X63.24Y-143.07
X63.24Y-145.61
X65.78Y-71.95
X65.78Y-74.49
X65.78Y-77.03
X65.78Y-79.57
X65.78Y-82.11
X65.78Y-84.65
X65.78Y-87.19
X65.78Y-89.73
X65.78Y-92.27
X65.78Y-94.81
X65.78Y-97.35
X65.78Y-99.89
X65.78Y-102.43
X65.78Y-104.97
X65.78Y-107.51
X65.78Y-110.05
X65.78Y-112.59
X65.78Y-115.13
X65.78Y-117.67
X65.78Y-120.21
X65.78Y-122.75
X65.78Y-125.29
X65.78Y-127.83
X65.78Y-130.37
X65.78Y-132.91
X65.78Y-135.45
X65.78Y-137.99
X65.78Y-140.53
X65.78Y-143.07
X65.78Y-145.61
T10
X23.4Y-24.75
X23.4Y-28.25
X23.4Y-31.75
X23.4Y-35.25
X23.4Y-41.306
X23.4Y-44.806
X23.4Y-48.306
X23.4Y-51.806
X23.4Y-57.861
X23.4Y-61.361
X23.4Y-64.861
X23.4Y-68.361
X23.4Y-74.417
X23.4Y-77.917
X23.4Y-81.417
X23.4Y-84.917
X23.4Y-90.972
X23.4Y-94.472
X23.4Y-97.972
X23.4Y-101.472
X23.4Y-107.528
X23.4Y-111.028
X23.4Y-114.528
X23.4Y-118.028
X23.4Y-124.083
X23.4Y-127.583
X23.4Y-131.083
X23.4Y-134.583
X23.4Y-140.639
X23.4Y-144.139
X23.4Y-147.639
X23.4Y-151.139
X23.4Y-157.194
X23.4Y-160.694
X23.4Y-164.194
X23.4Y-167.694
X23.4Y-173.75
X23.4Y-177.25
X23.4Y-180.75
X23.4Y-184.25
X30.179Y-187.0
X33.679Y-187.0
X39.71Y-187.0
X43.21Y-187.0
X49.21Y-187.0
X52.71Y-187.0
X58.71Y-187.0
X62.21Y-187.0
X71.25Y-187.1
X74.75Y-187.1
X78.25Y-187.1
X81.75Y-187.1
X81.8Y-21.9
X85.3Y-21.9
X87.1Y-29.25
X87.1Y-32.75
X87.1Y-38.875
X87.1Y-42.375
X87.1Y-48.5
X87.1Y-52.0
X87.1Y-58.125
X87.1Y-61.625
X87.1Y-67.75
X87.1Y-71.25
X87.1Y-78.25
X87.1Y-81.75
X87.1Y-85.25
X87.1Y-88.75
X87.1Y-97.15
X87.1Y-100.65
X87.1Y-104.15
X87.1Y-107.65
X87.1Y-116.05
X87.1Y-119.55
X87.1Y-123.05
X87.1Y-126.55
X87.1Y-134.95
X87.1Y-138.45
X87.1Y-141.95
X87.1Y-145.45
X87.1Y-153.85
X87.1Y-157.35
X87.1Y-160.85
X87.1Y-164.35
X87.1Y-172.75
X87.1Y-176.25
X87.1Y-179.75
X87.1Y-183.25
X88.8Y-21.9
X92.3Y-21.9
T11
X28.0Y-177.5
X29.5Y-22.0
X36.5Y-22.25
X37.46Y-176.9
X45.96Y-176.9
X56.46Y-176.9
X68.5Y-23.5
T12
X18.0Y-17.5
X18.0Y-192.0
X76.0Y-90.0
X92.25Y-192.144
T7
X59.68Y-15.705G85X59.68Y-15.105
G05
X59.68Y-20.135G85X59.68Y-19.035
G05
X68.32Y-15.705G85X68.32Y-15.105
G05
X68.32Y-20.135G85X68.32Y-19.035
G05
T0
M30
