%TF.GenerationSoftware,KiCad,Pcbnew,7.0.2*%
%TF.CreationDate,2023-05-23T23:28:36+01:00*%
%TF.ProjectId,kat_control_board,6b61745f-636f-46e7-9472-6f6c5f626f61,rev?*%
%TF.SameCoordinates,Original*%
%TF.FileFunction,Soldermask,Top*%
%TF.FilePolarity,Negative*%
%FSLAX46Y46*%
G04 Gerber Fmt 4.6, Leading zero omitted, Abs format (unit mm)*
G04 Created by KiCad (PCBNEW 7.0.2) date 2023-05-23 23:28:36*
%MOMM*%
%LPD*%
G01*
G04 APERTURE LIST*
G04 Aperture macros list*
%AMRoundRect*
0 Rectangle with rounded corners*
0 $1 Rounding radius*
0 $2 $3 $4 $5 $6 $7 $8 $9 X,Y pos of 4 corners*
0 Add a 4 corners polygon primitive as box body*
4,1,4,$2,$3,$4,$5,$6,$7,$8,$9,$2,$3,0*
0 Add four circle primitives for the rounded corners*
1,1,$1+$1,$2,$3*
1,1,$1+$1,$4,$5*
1,1,$1+$1,$6,$7*
1,1,$1+$1,$8,$9*
0 Add four rect primitives between the rounded corners*
20,1,$1+$1,$2,$3,$4,$5,0*
20,1,$1+$1,$4,$5,$6,$7,0*
20,1,$1+$1,$6,$7,$8,$9,0*
20,1,$1+$1,$8,$9,$2,$3,0*%
%AMFreePoly0*
4,1,7,2.200000,0.087500,0.150000,0.087500,0.150000,-0.362500,-0.150000,-0.362500,-0.150000,0.362500,2.200000,0.362500,2.200000,0.087500,2.200000,0.087500,$1*%
%AMFreePoly1*
4,1,9,1.825000,0.255000,1.175000,0.255000,1.175000,-0.500000,0.500000,-0.500000,-0.500000,-0.500000,-1.000000,-0.500000,-1.000000,0.700000,1.825000,0.700000,1.825000,0.255000,1.825000,0.255000,$1*%
G04 Aperture macros list end*
%ADD10RoundRect,0.140000X-0.170000X0.140000X-0.170000X-0.140000X0.170000X-0.140000X0.170000X0.140000X0*%
%ADD11C,2.500000*%
%ADD12RoundRect,0.135000X0.135000X0.185000X-0.135000X0.185000X-0.135000X-0.185000X0.135000X-0.185000X0*%
%ADD13RoundRect,0.135000X-0.185000X0.135000X-0.185000X-0.135000X0.185000X-0.135000X0.185000X0.135000X0*%
%ADD14RoundRect,0.150000X-0.150000X0.512500X-0.150000X-0.512500X0.150000X-0.512500X0.150000X0.512500X0*%
%ADD15RoundRect,0.250000X-1.000000X-0.650000X1.000000X-0.650000X1.000000X0.650000X-1.000000X0.650000X0*%
%ADD16RoundRect,0.150000X0.150000X-0.650000X0.150000X0.650000X-0.150000X0.650000X-0.150000X-0.650000X0*%
%ADD17RoundRect,0.140000X0.170000X-0.140000X0.170000X0.140000X-0.170000X0.140000X-0.170000X-0.140000X0*%
%ADD18RoundRect,0.135000X0.185000X-0.135000X0.185000X0.135000X-0.185000X0.135000X-0.185000X-0.135000X0*%
%ADD19RoundRect,0.150000X-0.587500X-0.150000X0.587500X-0.150000X0.587500X0.150000X-0.587500X0.150000X0*%
%ADD20R,1.700000X1.700000*%
%ADD21O,1.700000X1.700000*%
%ADD22C,0.800000*%
%ADD23C,7.000000*%
%ADD24RoundRect,0.135000X-0.135000X-0.185000X0.135000X-0.185000X0.135000X0.185000X-0.135000X0.185000X0*%
%ADD25RoundRect,0.140000X0.140000X0.170000X-0.140000X0.170000X-0.140000X-0.170000X0.140000X-0.170000X0*%
%ADD26RoundRect,0.225000X0.250000X-0.225000X0.250000X0.225000X-0.250000X0.225000X-0.250000X-0.225000X0*%
%ADD27RoundRect,0.100000X0.637500X0.100000X-0.637500X0.100000X-0.637500X-0.100000X0.637500X-0.100000X0*%
%ADD28C,0.650000*%
%ADD29R,0.600000X1.450000*%
%ADD30R,0.300000X1.450000*%
%ADD31O,1.000000X2.100000*%
%ADD32O,1.000000X1.600000*%
%ADD33RoundRect,0.150000X0.150000X-0.587500X0.150000X0.587500X-0.150000X0.587500X-0.150000X-0.587500X0*%
%ADD34RoundRect,0.875000X-0.875000X-1.125000X0.875000X-1.125000X0.875000X1.125000X-0.875000X1.125000X0*%
%ADD35RoundRect,0.225000X-0.250000X0.225000X-0.250000X-0.225000X0.250000X-0.225000X0.250000X0.225000X0*%
%ADD36R,1.600000X1.600000*%
%ADD37C,1.600000*%
%ADD38RoundRect,0.050000X-0.387500X-0.050000X0.387500X-0.050000X0.387500X0.050000X-0.387500X0.050000X0*%
%ADD39RoundRect,0.050000X-0.050000X-0.387500X0.050000X-0.387500X0.050000X0.387500X-0.050000X0.387500X0*%
%ADD40R,3.200000X3.200000*%
%ADD41R,0.725000X0.300000*%
%ADD42FreePoly0,0.000000*%
%ADD43R,0.300000X0.725000*%
%ADD44R,0.300000X0.730000*%
%ADD45R,1.575000X1.050000*%
%ADD46C,0.600000*%
%ADD47R,1.150000X1.050000*%
%ADD48FreePoly1,0.000000*%
%ADD49R,0.580000X0.380000*%
%ADD50RoundRect,0.140000X-0.140000X-0.170000X0.140000X-0.170000X0.140000X0.170000X-0.140000X0.170000X0*%
%ADD51RoundRect,0.100000X-0.100000X0.637500X-0.100000X-0.637500X0.100000X-0.637500X0.100000X0.637500X0*%
%ADD52R,1.400000X1.200000*%
%ADD53RoundRect,0.187500X0.312500X0.187500X-0.312500X0.187500X-0.312500X-0.187500X0.312500X-0.187500X0*%
%ADD54RoundRect,0.187500X-0.312500X-0.187500X0.312500X-0.187500X0.312500X0.187500X-0.312500X0.187500X0*%
%ADD55RoundRect,0.200000X-0.275000X0.200000X-0.275000X-0.200000X0.275000X-0.200000X0.275000X0.200000X0*%
G04 APERTURE END LIST*
D10*
X71705000Y-38384000D03*
X71705000Y-39344000D03*
D11*
X38900000Y-151250000D03*
X38900000Y-154750000D03*
X38900000Y-158250000D03*
X38900000Y-161750000D03*
D12*
X79510000Y-37250000D03*
X78490000Y-37250000D03*
D13*
X58100000Y-46590000D03*
X58100000Y-47610000D03*
D12*
X79510000Y-36250000D03*
X78490000Y-36250000D03*
D14*
X87950000Y-25612500D03*
X86050000Y-25612500D03*
X87000000Y-27887500D03*
D12*
X55020000Y-35000000D03*
X54000000Y-35000000D03*
X55020000Y-32000000D03*
X54000000Y-32000000D03*
D15*
X63830834Y-172962500D03*
X67830834Y-172962500D03*
D16*
X63577000Y-26208000D03*
X64847000Y-26208000D03*
X66117000Y-26208000D03*
X67387000Y-26208000D03*
X67387000Y-19008000D03*
X66117000Y-19008000D03*
X64847000Y-19008000D03*
X63577000Y-19008000D03*
D11*
X102600000Y-152700000D03*
X102600000Y-149200000D03*
X102600000Y-145700000D03*
X102600000Y-142200000D03*
D17*
X66879000Y-29974000D03*
X66879000Y-29014000D03*
D18*
X86300000Y-21200000D03*
X86300000Y-20180000D03*
D19*
X73625000Y-166050000D03*
X73625000Y-167950000D03*
X75500000Y-167000000D03*
D18*
X85000000Y-40510000D03*
X85000000Y-39490000D03*
D20*
X63500000Y-76200000D03*
D21*
X66040000Y-76200000D03*
X63500000Y-78740000D03*
X66040000Y-78740000D03*
X63500000Y-81280000D03*
X66040000Y-81280000D03*
X63500000Y-83820000D03*
X66040000Y-83820000D03*
X63500000Y-86360000D03*
X66040000Y-86360000D03*
X63500000Y-88900000D03*
X66040000Y-88900000D03*
X63500000Y-91440000D03*
X66040000Y-91440000D03*
X63500000Y-93980000D03*
X66040000Y-93980000D03*
X63500000Y-96520000D03*
X66040000Y-96520000D03*
X63500000Y-99060000D03*
X66040000Y-99060000D03*
X63500000Y-101600000D03*
X66040000Y-101600000D03*
X63500000Y-104140000D03*
X66040000Y-104140000D03*
X63500000Y-106680000D03*
X66040000Y-106680000D03*
X63500000Y-109220000D03*
X66040000Y-109220000D03*
X63500000Y-111760000D03*
X66040000Y-111760000D03*
X63500000Y-114300000D03*
X66040000Y-114300000D03*
X63500000Y-116840000D03*
X66040000Y-116840000D03*
X63500000Y-119380000D03*
X66040000Y-119380000D03*
X63500000Y-121920000D03*
X66040000Y-121920000D03*
X63500000Y-124460000D03*
X66040000Y-124460000D03*
X63500000Y-127000000D03*
X66040000Y-127000000D03*
X63500000Y-129540000D03*
X66040000Y-129540000D03*
X63500000Y-132080000D03*
X66040000Y-132080000D03*
X63500000Y-134620000D03*
X66040000Y-134620000D03*
X63500000Y-137160000D03*
X66040000Y-137160000D03*
X63500000Y-139700000D03*
X66040000Y-139700000D03*
X63500000Y-142240000D03*
X66040000Y-142240000D03*
X63500000Y-144780000D03*
X66040000Y-144780000D03*
X63500000Y-147320000D03*
X66040000Y-147320000D03*
X63500000Y-149860000D03*
X66040000Y-149860000D03*
D12*
X55020000Y-34000000D03*
X54000000Y-34000000D03*
D19*
X54062500Y-166050000D03*
X54062500Y-167950000D03*
X55937500Y-167000000D03*
D22*
X49518845Y-42143845D03*
X50287690Y-40287690D03*
X50287690Y-44000000D03*
X52143845Y-39518845D03*
D23*
X52143845Y-42143845D03*
D22*
X52143845Y-44768845D03*
X54000000Y-40287690D03*
X54000000Y-44000000D03*
X54768845Y-42143845D03*
D24*
X76990000Y-27000000D03*
X78010000Y-27000000D03*
D11*
X38900000Y-24500000D03*
X38900000Y-28000000D03*
X38900000Y-31500000D03*
X38900000Y-35000000D03*
D22*
X30875000Y-185500000D03*
X31643845Y-183643845D03*
X31643845Y-187356155D03*
X33500000Y-182875000D03*
D23*
X33500000Y-185500000D03*
D22*
X33500000Y-188125000D03*
X35356155Y-183643845D03*
X35356155Y-187356155D03*
X36125000Y-185500000D03*
D13*
X64100000Y-46570000D03*
X64100000Y-47590000D03*
D25*
X66060000Y-45200000D03*
X65100000Y-45200000D03*
D11*
X38900000Y-56187500D03*
X38900000Y-59687500D03*
X38900000Y-63187500D03*
X38900000Y-66687500D03*
D17*
X84000000Y-40480000D03*
X84000000Y-39520000D03*
D11*
X38900000Y-103718750D03*
X38900000Y-107218750D03*
X38900000Y-110718750D03*
X38900000Y-114218750D03*
X38900000Y-87875000D03*
X38900000Y-91375000D03*
X38900000Y-94875000D03*
X38900000Y-98375000D03*
D18*
X82500000Y-36770000D03*
X82500000Y-35750000D03*
D26*
X84500000Y-44025000D03*
X84500000Y-42475000D03*
D11*
X38900000Y-135406250D03*
X38900000Y-138906250D03*
X38900000Y-142406250D03*
X38900000Y-145906250D03*
D27*
X85108500Y-34169600D03*
X85108500Y-33519600D03*
X85108500Y-32869600D03*
X85108500Y-32219600D03*
X85108500Y-31569600D03*
X85108500Y-30919600D03*
X85108500Y-30269600D03*
X85108500Y-29619600D03*
X79383500Y-29619600D03*
X79383500Y-30269600D03*
X79383500Y-30919600D03*
X79383500Y-31569600D03*
X79383500Y-32219600D03*
X79383500Y-32869600D03*
X79383500Y-33519600D03*
X79383500Y-34169600D03*
D11*
X102600000Y-45750000D03*
X102600000Y-42250000D03*
D24*
X69544000Y-39245000D03*
X70564000Y-39245000D03*
D11*
X54750000Y-180100000D03*
X58250000Y-180100000D03*
D12*
X55020000Y-29000000D03*
X54000000Y-29000000D03*
D28*
X82390000Y-23305000D03*
X76610000Y-23305000D03*
D29*
X82750000Y-24750000D03*
X81950000Y-24750000D03*
D30*
X80750000Y-24750000D03*
X79750000Y-24750000D03*
X79250000Y-24750000D03*
X78250000Y-24750000D03*
D29*
X77050000Y-24750000D03*
X76250000Y-24750000D03*
X76250000Y-24750000D03*
X77050000Y-24750000D03*
D30*
X77750000Y-24750000D03*
X78750000Y-24750000D03*
X80250000Y-24750000D03*
X81250000Y-24750000D03*
D29*
X81950000Y-24750000D03*
X82750000Y-24750000D03*
D31*
X83820000Y-23835000D03*
D32*
X83820000Y-19655000D03*
D31*
X75180000Y-23835000D03*
D32*
X75180000Y-19655000D03*
D12*
X55020000Y-28000000D03*
X54000000Y-28000000D03*
D20*
X71120000Y-76200000D03*
D21*
X73660000Y-76200000D03*
X71120000Y-78740000D03*
X73660000Y-78740000D03*
X71120000Y-81280000D03*
X73660000Y-81280000D03*
X71120000Y-83820000D03*
X73660000Y-83820000D03*
X71120000Y-86360000D03*
X73660000Y-86360000D03*
X71120000Y-88900000D03*
X73660000Y-88900000D03*
X71120000Y-91440000D03*
X73660000Y-91440000D03*
X71120000Y-93980000D03*
X73660000Y-93980000D03*
X71120000Y-96520000D03*
X73660000Y-96520000D03*
X71120000Y-99060000D03*
X73660000Y-99060000D03*
X71120000Y-101600000D03*
X73660000Y-101600000D03*
X71120000Y-104140000D03*
X73660000Y-104140000D03*
X71120000Y-106680000D03*
X73660000Y-106680000D03*
X71120000Y-109220000D03*
X73660000Y-109220000D03*
X71120000Y-111760000D03*
X73660000Y-111760000D03*
X71120000Y-114300000D03*
X73660000Y-114300000D03*
X71120000Y-116840000D03*
X73660000Y-116840000D03*
X71120000Y-119380000D03*
X73660000Y-119380000D03*
X71120000Y-121920000D03*
X73660000Y-121920000D03*
X71120000Y-124460000D03*
X73660000Y-124460000D03*
X71120000Y-127000000D03*
X73660000Y-127000000D03*
X71120000Y-129540000D03*
X73660000Y-129540000D03*
X71120000Y-132080000D03*
X73660000Y-132080000D03*
X71120000Y-134620000D03*
X73660000Y-134620000D03*
X71120000Y-137160000D03*
X73660000Y-137160000D03*
X71120000Y-139700000D03*
X73660000Y-139700000D03*
X71120000Y-142240000D03*
X73660000Y-142240000D03*
X71120000Y-144780000D03*
X73660000Y-144780000D03*
X71120000Y-147320000D03*
X73660000Y-147320000D03*
X71120000Y-149860000D03*
X73660000Y-149860000D03*
D19*
X62562500Y-166050000D03*
X62562500Y-167950000D03*
X64437500Y-167000000D03*
D33*
X68300000Y-46375000D03*
X70200000Y-46375000D03*
X69250000Y-44500000D03*
D34*
X79750000Y-50000000D03*
X89250000Y-50000000D03*
D12*
X55020000Y-33000000D03*
X54000000Y-33000000D03*
D35*
X77000000Y-41475000D03*
X77000000Y-43025000D03*
D36*
X73250000Y-54250000D03*
D37*
X75750000Y-54250000D03*
D13*
X45069166Y-168942500D03*
X45069166Y-169962500D03*
X60437500Y-166980000D03*
X60437500Y-168000000D03*
D17*
X76277000Y-29819000D03*
X76277000Y-28859000D03*
D11*
X102600000Y-72750000D03*
X102600000Y-69250000D03*
X102600000Y-120700000D03*
X102600000Y-117200000D03*
X102600000Y-113700000D03*
X102600000Y-110200000D03*
D38*
X68102500Y-30130000D03*
X68102500Y-30530000D03*
X68102500Y-30930000D03*
X68102500Y-31330000D03*
X68102500Y-31730000D03*
X68102500Y-32130000D03*
X68102500Y-32530000D03*
X68102500Y-32930000D03*
X68102500Y-33330000D03*
X68102500Y-33730000D03*
X68102500Y-34130000D03*
X68102500Y-34530000D03*
X68102500Y-34930000D03*
X68102500Y-35330000D03*
D39*
X68940000Y-36167500D03*
X69340000Y-36167500D03*
X69740000Y-36167500D03*
X70140000Y-36167500D03*
X70540000Y-36167500D03*
X70940000Y-36167500D03*
X71340000Y-36167500D03*
X71740000Y-36167500D03*
X72140000Y-36167500D03*
X72540000Y-36167500D03*
X72940000Y-36167500D03*
X73340000Y-36167500D03*
X73740000Y-36167500D03*
X74140000Y-36167500D03*
D38*
X74977500Y-35330000D03*
X74977500Y-34930000D03*
X74977500Y-34530000D03*
X74977500Y-34130000D03*
X74977500Y-33730000D03*
X74977500Y-33330000D03*
X74977500Y-32930000D03*
X74977500Y-32530000D03*
X74977500Y-32130000D03*
X74977500Y-31730000D03*
X74977500Y-31330000D03*
X74977500Y-30930000D03*
X74977500Y-30530000D03*
X74977500Y-30130000D03*
D39*
X74140000Y-29292500D03*
X73740000Y-29292500D03*
X73340000Y-29292500D03*
X72940000Y-29292500D03*
X72540000Y-29292500D03*
X72140000Y-29292500D03*
X71740000Y-29292500D03*
X71340000Y-29292500D03*
X70940000Y-29292500D03*
X70540000Y-29292500D03*
X70140000Y-29292500D03*
X69740000Y-29292500D03*
X69340000Y-29292500D03*
X68940000Y-29292500D03*
D40*
X71540000Y-32730000D03*
D25*
X66625000Y-33987200D03*
X65665000Y-33987200D03*
D15*
X53866668Y-172962500D03*
X57866668Y-172962500D03*
D41*
X78625000Y-41440000D03*
X78625000Y-41890000D03*
X78625000Y-42790000D03*
X78625000Y-43240000D03*
D42*
X79087500Y-44202500D03*
D43*
X79537500Y-44202500D03*
X79987500Y-44202500D03*
X80687500Y-44202500D03*
X81137500Y-44202500D03*
D44*
X81587500Y-44200000D03*
D41*
X82500000Y-43690000D03*
X82500000Y-43240000D03*
X82500000Y-42790000D03*
X82500000Y-42340000D03*
X82500000Y-41890000D03*
X82500000Y-41440000D03*
X82500000Y-40990000D03*
D43*
X82037500Y-40327500D03*
X81587500Y-40327500D03*
X81137500Y-40327500D03*
X80687500Y-40327500D03*
X79987500Y-40327500D03*
X79537500Y-40327500D03*
X79087500Y-40327500D03*
D45*
X81050000Y-41515000D03*
D46*
X81052500Y-41505000D03*
D47*
X79387500Y-41515000D03*
D46*
X79407500Y-41515000D03*
X79357500Y-42715000D03*
D48*
X79812500Y-43040000D03*
D46*
X80042500Y-43200000D03*
X80667500Y-42705000D03*
D49*
X81547500Y-43255000D03*
D50*
X76333000Y-33911000D03*
X77293000Y-33911000D03*
D13*
X61100000Y-46570000D03*
X61100000Y-47590000D03*
X59100000Y-46570000D03*
X59100000Y-47590000D03*
D11*
X102600000Y-63750000D03*
X102600000Y-60250000D03*
D17*
X89300000Y-28250000D03*
X89300000Y-27290000D03*
D18*
X67000000Y-42260000D03*
X67000000Y-41240000D03*
D11*
X102600000Y-104700000D03*
X102600000Y-101200000D03*
X102600000Y-97700000D03*
X102600000Y-94200000D03*
D25*
X79480000Y-35250000D03*
X78520000Y-35250000D03*
D18*
X90300000Y-21210000D03*
X90300000Y-20190000D03*
D51*
X62808000Y-28567000D03*
X62158000Y-28567000D03*
X61508000Y-28567000D03*
X60858000Y-28567000D03*
X60208000Y-28567000D03*
X59558000Y-28567000D03*
X58908000Y-28567000D03*
X58258000Y-28567000D03*
X57608000Y-28567000D03*
X56958000Y-28567000D03*
X56958000Y-34292000D03*
X57608000Y-34292000D03*
X58258000Y-34292000D03*
X58908000Y-34292000D03*
X59558000Y-34292000D03*
X60208000Y-34292000D03*
X60858000Y-34292000D03*
X61508000Y-34292000D03*
X62158000Y-34292000D03*
X62808000Y-34292000D03*
D36*
X88567621Y-34250000D03*
D37*
X91067621Y-34250000D03*
D13*
X65100000Y-46570000D03*
X65100000Y-47590000D03*
D10*
X73610000Y-40289000D03*
X73610000Y-41249000D03*
D11*
X102600000Y-37000000D03*
X102600000Y-33500000D03*
D22*
X105125000Y-185500000D03*
X105893845Y-183643845D03*
X105893845Y-187356155D03*
X107750000Y-182875000D03*
D23*
X107750000Y-185500000D03*
D22*
X107750000Y-188125000D03*
X109606155Y-183643845D03*
X109606155Y-187356155D03*
X110375000Y-185500000D03*
D18*
X81500000Y-36760000D03*
X81500000Y-35740000D03*
D13*
X62000000Y-25230000D03*
X62000000Y-26250000D03*
D11*
X102600000Y-168700000D03*
X102600000Y-165200000D03*
X102600000Y-161700000D03*
X102600000Y-158200000D03*
X102600000Y-88700000D03*
X102600000Y-85200000D03*
X102600000Y-81700000D03*
X102600000Y-78200000D03*
D18*
X88300000Y-21210000D03*
X88300000Y-20190000D03*
D13*
X60000000Y-25240000D03*
X60000000Y-26260000D03*
D11*
X38900000Y-119562500D03*
X38900000Y-123062500D03*
X38900000Y-126562500D03*
X38900000Y-130062500D03*
D18*
X87300000Y-21200000D03*
X87300000Y-20180000D03*
D19*
X47194166Y-168012500D03*
X47194166Y-169912500D03*
X49069166Y-168962500D03*
D15*
X73500000Y-172962500D03*
X77500000Y-172962500D03*
D50*
X74270000Y-28000000D03*
X75230000Y-28000000D03*
D20*
X55880000Y-76200000D03*
D21*
X58420000Y-76200000D03*
X55880000Y-78740000D03*
X58420000Y-78740000D03*
X55880000Y-81280000D03*
X58420000Y-81280000D03*
X55880000Y-83820000D03*
X58420000Y-83820000D03*
X55880000Y-86360000D03*
X58420000Y-86360000D03*
X55880000Y-88900000D03*
X58420000Y-88900000D03*
X55880000Y-91440000D03*
X58420000Y-91440000D03*
X55880000Y-93980000D03*
X58420000Y-93980000D03*
X55880000Y-96520000D03*
X58420000Y-96520000D03*
X55880000Y-99060000D03*
X58420000Y-99060000D03*
X55880000Y-101600000D03*
X58420000Y-101600000D03*
X55880000Y-104140000D03*
X58420000Y-104140000D03*
X55880000Y-106680000D03*
X58420000Y-106680000D03*
X55880000Y-109220000D03*
X58420000Y-109220000D03*
X55880000Y-111760000D03*
X58420000Y-111760000D03*
X55880000Y-114300000D03*
X58420000Y-114300000D03*
X55880000Y-116840000D03*
X58420000Y-116840000D03*
X55880000Y-119380000D03*
X58420000Y-119380000D03*
X55880000Y-121920000D03*
X58420000Y-121920000D03*
X55880000Y-124460000D03*
X58420000Y-124460000D03*
X55880000Y-127000000D03*
X58420000Y-127000000D03*
X55880000Y-129540000D03*
X58420000Y-129540000D03*
X55880000Y-132080000D03*
X58420000Y-132080000D03*
X55880000Y-134620000D03*
X58420000Y-134620000D03*
X55880000Y-137160000D03*
X58420000Y-137160000D03*
X55880000Y-139700000D03*
X58420000Y-139700000D03*
X55880000Y-142240000D03*
X58420000Y-142240000D03*
X55880000Y-144780000D03*
X58420000Y-144780000D03*
X55880000Y-147320000D03*
X58420000Y-147320000D03*
X55880000Y-149860000D03*
X58420000Y-149860000D03*
D10*
X64008800Y-33964400D03*
X64008800Y-34924400D03*
D13*
X71500000Y-166980000D03*
X71500000Y-168000000D03*
D17*
X69500000Y-26230000D03*
X69500000Y-25270000D03*
D13*
X52062500Y-167050000D03*
X52062500Y-168070000D03*
D17*
X70500000Y-26230000D03*
X70500000Y-25270000D03*
D11*
X73750000Y-180100000D03*
X77250000Y-180100000D03*
X102600000Y-136700000D03*
X102600000Y-133200000D03*
X102600000Y-129700000D03*
X102600000Y-126200000D03*
D12*
X82260000Y-27500000D03*
X81240000Y-27500000D03*
D51*
X65765400Y-37931900D03*
X65115400Y-37931900D03*
X64465400Y-37931900D03*
X63815400Y-37931900D03*
X63165400Y-37931900D03*
X62515400Y-37931900D03*
X61865400Y-37931900D03*
X61215400Y-37931900D03*
X60565400Y-37931900D03*
X59915400Y-37931900D03*
X59915400Y-43656900D03*
X60565400Y-43656900D03*
X61215400Y-43656900D03*
X61865400Y-43656900D03*
X62515400Y-43656900D03*
X63165400Y-43656900D03*
X63815400Y-43656900D03*
X64465400Y-43656900D03*
X65115400Y-43656900D03*
X65765400Y-43656900D03*
D18*
X83500000Y-36760000D03*
X83500000Y-35740000D03*
D13*
X60100000Y-46570000D03*
X60100000Y-47590000D03*
D11*
X64250000Y-180100000D03*
X67750000Y-180100000D03*
D17*
X79500000Y-39230000D03*
X79500000Y-38270000D03*
D11*
X102600000Y-54750000D03*
X102600000Y-51250000D03*
D17*
X68300000Y-42030000D03*
X68300000Y-41070000D03*
D10*
X73229000Y-38384000D03*
X73229000Y-39344000D03*
D52*
X69800000Y-42420000D03*
X72000000Y-42420000D03*
X72000000Y-40720000D03*
X69800000Y-40720000D03*
D11*
X38900000Y-72031250D03*
X38900000Y-75531250D03*
X38900000Y-79031250D03*
X38900000Y-82531250D03*
D20*
X78740000Y-76200000D03*
D21*
X81280000Y-76200000D03*
X78740000Y-78740000D03*
X81280000Y-78740000D03*
X78740000Y-81280000D03*
X81280000Y-81280000D03*
X78740000Y-83820000D03*
X81280000Y-83820000D03*
X78740000Y-86360000D03*
X81280000Y-86360000D03*
X78740000Y-88900000D03*
X81280000Y-88900000D03*
X78740000Y-91440000D03*
X81280000Y-91440000D03*
X78740000Y-93980000D03*
X81280000Y-93980000D03*
X78740000Y-96520000D03*
X81280000Y-96520000D03*
X78740000Y-99060000D03*
X81280000Y-99060000D03*
X78740000Y-101600000D03*
X81280000Y-101600000D03*
X78740000Y-104140000D03*
X81280000Y-104140000D03*
X78740000Y-106680000D03*
X81280000Y-106680000D03*
X78740000Y-109220000D03*
X81280000Y-109220000D03*
X78740000Y-111760000D03*
X81280000Y-111760000D03*
X78740000Y-114300000D03*
X81280000Y-114300000D03*
X78740000Y-116840000D03*
X81280000Y-116840000D03*
X78740000Y-119380000D03*
X81280000Y-119380000D03*
X78740000Y-121920000D03*
X81280000Y-121920000D03*
X78740000Y-124460000D03*
X81280000Y-124460000D03*
X78740000Y-127000000D03*
X81280000Y-127000000D03*
X78740000Y-129540000D03*
X81280000Y-129540000D03*
X78740000Y-132080000D03*
X81280000Y-132080000D03*
X78740000Y-134620000D03*
X81280000Y-134620000D03*
X78740000Y-137160000D03*
X81280000Y-137160000D03*
X78740000Y-139700000D03*
X81280000Y-139700000D03*
X78740000Y-142240000D03*
X81280000Y-142240000D03*
X78740000Y-144780000D03*
X81280000Y-144780000D03*
X78740000Y-147320000D03*
X81280000Y-147320000D03*
X78740000Y-149860000D03*
X81280000Y-149860000D03*
D15*
X45069166Y-172962500D03*
X49069166Y-172962500D03*
D11*
X107800000Y-27000000D03*
X104300000Y-27000000D03*
X100800000Y-27000000D03*
X97300000Y-27000000D03*
D36*
X73250000Y-47250000D03*
D37*
X75750000Y-47250000D03*
D11*
X38900000Y-40343750D03*
X38900000Y-43843750D03*
X38900000Y-47343750D03*
X38900000Y-50843750D03*
D18*
X89300000Y-21210000D03*
X89300000Y-20190000D03*
D12*
X55020000Y-31000000D03*
X54000000Y-31000000D03*
D18*
X78500000Y-39260000D03*
X78500000Y-38240000D03*
D53*
X47000000Y-22875000D03*
X41000000Y-22875000D03*
X47000000Y-19125000D03*
X41000000Y-19125000D03*
D13*
X63100000Y-46580000D03*
X63100000Y-47600000D03*
D54*
X48500000Y-19125000D03*
X54500000Y-19125000D03*
X48500000Y-22875000D03*
X54500000Y-22875000D03*
D11*
X38900000Y-167250000D03*
X38900000Y-170750000D03*
X38900000Y-174250000D03*
X38900000Y-177750000D03*
D36*
X88567621Y-41250000D03*
D37*
X91067621Y-41250000D03*
D50*
X86290000Y-24000000D03*
X87250000Y-24000000D03*
D55*
X73250000Y-25100000D03*
X73250000Y-26750000D03*
X71750000Y-24925000D03*
X71750000Y-26575000D03*
D12*
X55010000Y-30000000D03*
X53990000Y-30000000D03*
D11*
X85250000Y-180100000D03*
X88750000Y-180100000D03*
X92250000Y-180100000D03*
X95750000Y-180100000D03*
D12*
X55010000Y-26500000D03*
X53990000Y-26500000D03*
D10*
X61926000Y-22884000D03*
X61926000Y-23844000D03*
D11*
X45219166Y-180100000D03*
X48719166Y-180100000D03*
D13*
X62100000Y-46580000D03*
X62100000Y-47600000D03*
M02*
