%TF.GenerationSoftware,KiCad,Pcbnew,7.0.2*%
%TF.CreationDate,2023-05-31T16:55:31+01:00*%
%TF.ProjectId,kat_control_board,6b61745f-636f-46e7-9472-6f6c5f626f61,rev?*%
%TF.SameCoordinates,Original*%
%TF.FileFunction,Drillmap*%
%TF.FilePolarity,Positive*%
%FSLAX45Y45*%
G04 Gerber Fmt 4.5, Leading zero omitted, Abs format (unit mm)*
G04 Created by KiCad (PCBNEW 7.0.2) date 2023-05-31 16:55:31*
%MOMM*%
%LPD*%
G01*
G04 APERTURE LIST*
%ADD10C,0.100000*%
%ADD11C,0.200000*%
%ADD12C,0.065000*%
G04 APERTURE END LIST*
D10*
X9750000Y-19550000D02*
X9750000Y-1400000D01*
X9750000Y-1400000D02*
X9600000Y-1250000D01*
X1300000Y-19550000D02*
X1300000Y-1400000D01*
X1450000Y-19700000D02*
X9600000Y-19700000D01*
X9600000Y-1250000D02*
X1450000Y-1250000D01*
X9600000Y-19700000D02*
X9750000Y-19550000D01*
X1450000Y-1250000D02*
X1300000Y-1400000D01*
X1300000Y-19550000D02*
X1450000Y-19700000D01*
D11*
D12*
X6078500Y-1873000D02*
X6143500Y-1938000D01*
X6143500Y-1873000D02*
X6078500Y-1938000D01*
X6656500Y-1873000D02*
X6721500Y-1938000D01*
X6721500Y-1873000D02*
X6656500Y-1938000D01*
D11*
X1542619Y-20017524D02*
X1542619Y-19817524D01*
X1542619Y-19817524D02*
X1590238Y-19817524D01*
X1590238Y-19817524D02*
X1618809Y-19827048D01*
X1618809Y-19827048D02*
X1637857Y-19846095D01*
X1637857Y-19846095D02*
X1647381Y-19865143D01*
X1647381Y-19865143D02*
X1656905Y-19903238D01*
X1656905Y-19903238D02*
X1656905Y-19931810D01*
X1656905Y-19931810D02*
X1647381Y-19969905D01*
X1647381Y-19969905D02*
X1637857Y-19988952D01*
X1637857Y-19988952D02*
X1618809Y-20008000D01*
X1618809Y-20008000D02*
X1590238Y-20017524D01*
X1590238Y-20017524D02*
X1542619Y-20017524D01*
X1742619Y-20017524D02*
X1742619Y-19884190D01*
X1742619Y-19922286D02*
X1752143Y-19903238D01*
X1752143Y-19903238D02*
X1761667Y-19893714D01*
X1761667Y-19893714D02*
X1780714Y-19884190D01*
X1780714Y-19884190D02*
X1799762Y-19884190D01*
X1866428Y-20017524D02*
X1866428Y-19884190D01*
X1866428Y-19817524D02*
X1856905Y-19827048D01*
X1856905Y-19827048D02*
X1866428Y-19836571D01*
X1866428Y-19836571D02*
X1875952Y-19827048D01*
X1875952Y-19827048D02*
X1866428Y-19817524D01*
X1866428Y-19817524D02*
X1866428Y-19836571D01*
X1990238Y-20017524D02*
X1971190Y-20008000D01*
X1971190Y-20008000D02*
X1961667Y-19988952D01*
X1961667Y-19988952D02*
X1961667Y-19817524D01*
X2095000Y-20017524D02*
X2075952Y-20008000D01*
X2075952Y-20008000D02*
X2066428Y-19988952D01*
X2066428Y-19988952D02*
X2066428Y-19817524D01*
X2323571Y-20017524D02*
X2323571Y-19817524D01*
X2323571Y-19817524D02*
X2390238Y-19960381D01*
X2390238Y-19960381D02*
X2456905Y-19817524D01*
X2456905Y-19817524D02*
X2456905Y-20017524D01*
X2637857Y-20017524D02*
X2637857Y-19912762D01*
X2637857Y-19912762D02*
X2628333Y-19893714D01*
X2628333Y-19893714D02*
X2609286Y-19884190D01*
X2609286Y-19884190D02*
X2571190Y-19884190D01*
X2571190Y-19884190D02*
X2552143Y-19893714D01*
X2637857Y-20008000D02*
X2618810Y-20017524D01*
X2618810Y-20017524D02*
X2571190Y-20017524D01*
X2571190Y-20017524D02*
X2552143Y-20008000D01*
X2552143Y-20008000D02*
X2542619Y-19988952D01*
X2542619Y-19988952D02*
X2542619Y-19969905D01*
X2542619Y-19969905D02*
X2552143Y-19950857D01*
X2552143Y-19950857D02*
X2571190Y-19941333D01*
X2571190Y-19941333D02*
X2618810Y-19941333D01*
X2618810Y-19941333D02*
X2637857Y-19931810D01*
X2733095Y-19884190D02*
X2733095Y-20084190D01*
X2733095Y-19893714D02*
X2752143Y-19884190D01*
X2752143Y-19884190D02*
X2790238Y-19884190D01*
X2790238Y-19884190D02*
X2809286Y-19893714D01*
X2809286Y-19893714D02*
X2818809Y-19903238D01*
X2818809Y-19903238D02*
X2828333Y-19922286D01*
X2828333Y-19922286D02*
X2828333Y-19979429D01*
X2828333Y-19979429D02*
X2818809Y-19998476D01*
X2818809Y-19998476D02*
X2809286Y-20008000D01*
X2809286Y-20008000D02*
X2790238Y-20017524D01*
X2790238Y-20017524D02*
X2752143Y-20017524D01*
X2752143Y-20017524D02*
X2733095Y-20008000D01*
X2914048Y-19998476D02*
X2923571Y-20008000D01*
X2923571Y-20008000D02*
X2914048Y-20017524D01*
X2914048Y-20017524D02*
X2904524Y-20008000D01*
X2904524Y-20008000D02*
X2914048Y-19998476D01*
X2914048Y-19998476D02*
X2914048Y-20017524D01*
X2914048Y-19893714D02*
X2923571Y-19903238D01*
X2923571Y-19903238D02*
X2914048Y-19912762D01*
X2914048Y-19912762D02*
X2904524Y-19903238D01*
X2904524Y-19903238D02*
X2914048Y-19893714D01*
X2914048Y-19893714D02*
X2914048Y-19912762D01*
D12*
X1230000Y-20312500D02*
X1295000Y-20377500D01*
X1295000Y-20312500D02*
X1230000Y-20377500D01*
D11*
X1580714Y-20237524D02*
X1599762Y-20237524D01*
X1599762Y-20237524D02*
X1618809Y-20247048D01*
X1618809Y-20247048D02*
X1628333Y-20256571D01*
X1628333Y-20256571D02*
X1637857Y-20275619D01*
X1637857Y-20275619D02*
X1647381Y-20313714D01*
X1647381Y-20313714D02*
X1647381Y-20361333D01*
X1647381Y-20361333D02*
X1637857Y-20399429D01*
X1637857Y-20399429D02*
X1628333Y-20418476D01*
X1628333Y-20418476D02*
X1618809Y-20428000D01*
X1618809Y-20428000D02*
X1599762Y-20437524D01*
X1599762Y-20437524D02*
X1580714Y-20437524D01*
X1580714Y-20437524D02*
X1561667Y-20428000D01*
X1561667Y-20428000D02*
X1552143Y-20418476D01*
X1552143Y-20418476D02*
X1542619Y-20399429D01*
X1542619Y-20399429D02*
X1533095Y-20361333D01*
X1533095Y-20361333D02*
X1533095Y-20313714D01*
X1533095Y-20313714D02*
X1542619Y-20275619D01*
X1542619Y-20275619D02*
X1552143Y-20256571D01*
X1552143Y-20256571D02*
X1561667Y-20247048D01*
X1561667Y-20247048D02*
X1580714Y-20237524D01*
X1733095Y-20418476D02*
X1742619Y-20428000D01*
X1742619Y-20428000D02*
X1733095Y-20437524D01*
X1733095Y-20437524D02*
X1723571Y-20428000D01*
X1723571Y-20428000D02*
X1733095Y-20418476D01*
X1733095Y-20418476D02*
X1733095Y-20437524D01*
X1914048Y-20237524D02*
X1875952Y-20237524D01*
X1875952Y-20237524D02*
X1856905Y-20247048D01*
X1856905Y-20247048D02*
X1847381Y-20256571D01*
X1847381Y-20256571D02*
X1828333Y-20285143D01*
X1828333Y-20285143D02*
X1818809Y-20323238D01*
X1818809Y-20323238D02*
X1818809Y-20399429D01*
X1818809Y-20399429D02*
X1828333Y-20418476D01*
X1828333Y-20418476D02*
X1837857Y-20428000D01*
X1837857Y-20428000D02*
X1856905Y-20437524D01*
X1856905Y-20437524D02*
X1895000Y-20437524D01*
X1895000Y-20437524D02*
X1914048Y-20428000D01*
X1914048Y-20428000D02*
X1923571Y-20418476D01*
X1923571Y-20418476D02*
X1933095Y-20399429D01*
X1933095Y-20399429D02*
X1933095Y-20351810D01*
X1933095Y-20351810D02*
X1923571Y-20332762D01*
X1923571Y-20332762D02*
X1914048Y-20323238D01*
X1914048Y-20323238D02*
X1895000Y-20313714D01*
X1895000Y-20313714D02*
X1856905Y-20313714D01*
X1856905Y-20313714D02*
X1837857Y-20323238D01*
X1837857Y-20323238D02*
X1828333Y-20332762D01*
X1828333Y-20332762D02*
X1818809Y-20351810D01*
X2114048Y-20237524D02*
X2018809Y-20237524D01*
X2018809Y-20237524D02*
X2009286Y-20332762D01*
X2009286Y-20332762D02*
X2018809Y-20323238D01*
X2018809Y-20323238D02*
X2037857Y-20313714D01*
X2037857Y-20313714D02*
X2085476Y-20313714D01*
X2085476Y-20313714D02*
X2104524Y-20323238D01*
X2104524Y-20323238D02*
X2114048Y-20332762D01*
X2114048Y-20332762D02*
X2123571Y-20351810D01*
X2123571Y-20351810D02*
X2123571Y-20399429D01*
X2123571Y-20399429D02*
X2114048Y-20418476D01*
X2114048Y-20418476D02*
X2104524Y-20428000D01*
X2104524Y-20428000D02*
X2085476Y-20437524D01*
X2085476Y-20437524D02*
X2037857Y-20437524D01*
X2037857Y-20437524D02*
X2018809Y-20428000D01*
X2018809Y-20428000D02*
X2009286Y-20418476D01*
X2247381Y-20237524D02*
X2266429Y-20237524D01*
X2266429Y-20237524D02*
X2285476Y-20247048D01*
X2285476Y-20247048D02*
X2295000Y-20256571D01*
X2295000Y-20256571D02*
X2304524Y-20275619D01*
X2304524Y-20275619D02*
X2314048Y-20313714D01*
X2314048Y-20313714D02*
X2314048Y-20361333D01*
X2314048Y-20361333D02*
X2304524Y-20399429D01*
X2304524Y-20399429D02*
X2295000Y-20418476D01*
X2295000Y-20418476D02*
X2285476Y-20428000D01*
X2285476Y-20428000D02*
X2266429Y-20437524D01*
X2266429Y-20437524D02*
X2247381Y-20437524D01*
X2247381Y-20437524D02*
X2228333Y-20428000D01*
X2228333Y-20428000D02*
X2218810Y-20418476D01*
X2218810Y-20418476D02*
X2209286Y-20399429D01*
X2209286Y-20399429D02*
X2199762Y-20361333D01*
X2199762Y-20361333D02*
X2199762Y-20313714D01*
X2199762Y-20313714D02*
X2209286Y-20275619D01*
X2209286Y-20275619D02*
X2218810Y-20256571D01*
X2218810Y-20256571D02*
X2228333Y-20247048D01*
X2228333Y-20247048D02*
X2247381Y-20237524D01*
X2399762Y-20437524D02*
X2399762Y-20304190D01*
X2399762Y-20323238D02*
X2409286Y-20313714D01*
X2409286Y-20313714D02*
X2428333Y-20304190D01*
X2428333Y-20304190D02*
X2456905Y-20304190D01*
X2456905Y-20304190D02*
X2475952Y-20313714D01*
X2475952Y-20313714D02*
X2485476Y-20332762D01*
X2485476Y-20332762D02*
X2485476Y-20437524D01*
X2485476Y-20332762D02*
X2495000Y-20313714D01*
X2495000Y-20313714D02*
X2514048Y-20304190D01*
X2514048Y-20304190D02*
X2542619Y-20304190D01*
X2542619Y-20304190D02*
X2561667Y-20313714D01*
X2561667Y-20313714D02*
X2571191Y-20332762D01*
X2571191Y-20332762D02*
X2571191Y-20437524D01*
X2666429Y-20437524D02*
X2666429Y-20304190D01*
X2666429Y-20323238D02*
X2675952Y-20313714D01*
X2675952Y-20313714D02*
X2695000Y-20304190D01*
X2695000Y-20304190D02*
X2723572Y-20304190D01*
X2723572Y-20304190D02*
X2742619Y-20313714D01*
X2742619Y-20313714D02*
X2752143Y-20332762D01*
X2752143Y-20332762D02*
X2752143Y-20437524D01*
X2752143Y-20332762D02*
X2761667Y-20313714D01*
X2761667Y-20313714D02*
X2780714Y-20304190D01*
X2780714Y-20304190D02*
X2809286Y-20304190D01*
X2809286Y-20304190D02*
X2828333Y-20313714D01*
X2828333Y-20313714D02*
X2837857Y-20332762D01*
X2837857Y-20332762D02*
X2837857Y-20437524D01*
X3228333Y-20228000D02*
X3056905Y-20485143D01*
X3485476Y-20237524D02*
X3504524Y-20237524D01*
X3504524Y-20237524D02*
X3523572Y-20247048D01*
X3523572Y-20247048D02*
X3533095Y-20256571D01*
X3533095Y-20256571D02*
X3542619Y-20275619D01*
X3542619Y-20275619D02*
X3552143Y-20313714D01*
X3552143Y-20313714D02*
X3552143Y-20361333D01*
X3552143Y-20361333D02*
X3542619Y-20399429D01*
X3542619Y-20399429D02*
X3533095Y-20418476D01*
X3533095Y-20418476D02*
X3523572Y-20428000D01*
X3523572Y-20428000D02*
X3504524Y-20437524D01*
X3504524Y-20437524D02*
X3485476Y-20437524D01*
X3485476Y-20437524D02*
X3466429Y-20428000D01*
X3466429Y-20428000D02*
X3456905Y-20418476D01*
X3456905Y-20418476D02*
X3447381Y-20399429D01*
X3447381Y-20399429D02*
X3437857Y-20361333D01*
X3437857Y-20361333D02*
X3437857Y-20313714D01*
X3437857Y-20313714D02*
X3447381Y-20275619D01*
X3447381Y-20275619D02*
X3456905Y-20256571D01*
X3456905Y-20256571D02*
X3466429Y-20247048D01*
X3466429Y-20247048D02*
X3485476Y-20237524D01*
X3637857Y-20418476D02*
X3647381Y-20428000D01*
X3647381Y-20428000D02*
X3637857Y-20437524D01*
X3637857Y-20437524D02*
X3628333Y-20428000D01*
X3628333Y-20428000D02*
X3637857Y-20418476D01*
X3637857Y-20418476D02*
X3637857Y-20437524D01*
X3771191Y-20237524D02*
X3790238Y-20237524D01*
X3790238Y-20237524D02*
X3809286Y-20247048D01*
X3809286Y-20247048D02*
X3818810Y-20256571D01*
X3818810Y-20256571D02*
X3828333Y-20275619D01*
X3828333Y-20275619D02*
X3837857Y-20313714D01*
X3837857Y-20313714D02*
X3837857Y-20361333D01*
X3837857Y-20361333D02*
X3828333Y-20399429D01*
X3828333Y-20399429D02*
X3818810Y-20418476D01*
X3818810Y-20418476D02*
X3809286Y-20428000D01*
X3809286Y-20428000D02*
X3790238Y-20437524D01*
X3790238Y-20437524D02*
X3771191Y-20437524D01*
X3771191Y-20437524D02*
X3752143Y-20428000D01*
X3752143Y-20428000D02*
X3742619Y-20418476D01*
X3742619Y-20418476D02*
X3733095Y-20399429D01*
X3733095Y-20399429D02*
X3723572Y-20361333D01*
X3723572Y-20361333D02*
X3723572Y-20313714D01*
X3723572Y-20313714D02*
X3733095Y-20275619D01*
X3733095Y-20275619D02*
X3742619Y-20256571D01*
X3742619Y-20256571D02*
X3752143Y-20247048D01*
X3752143Y-20247048D02*
X3771191Y-20237524D01*
X3914048Y-20256571D02*
X3923572Y-20247048D01*
X3923572Y-20247048D02*
X3942619Y-20237524D01*
X3942619Y-20237524D02*
X3990238Y-20237524D01*
X3990238Y-20237524D02*
X4009286Y-20247048D01*
X4009286Y-20247048D02*
X4018810Y-20256571D01*
X4018810Y-20256571D02*
X4028333Y-20275619D01*
X4028333Y-20275619D02*
X4028333Y-20294667D01*
X4028333Y-20294667D02*
X4018810Y-20323238D01*
X4018810Y-20323238D02*
X3904524Y-20437524D01*
X3904524Y-20437524D02*
X4028333Y-20437524D01*
X4209286Y-20237524D02*
X4114048Y-20237524D01*
X4114048Y-20237524D02*
X4104524Y-20332762D01*
X4104524Y-20332762D02*
X4114048Y-20323238D01*
X4114048Y-20323238D02*
X4133095Y-20313714D01*
X4133095Y-20313714D02*
X4180714Y-20313714D01*
X4180714Y-20313714D02*
X4199762Y-20323238D01*
X4199762Y-20323238D02*
X4209286Y-20332762D01*
X4209286Y-20332762D02*
X4218810Y-20351810D01*
X4218810Y-20351810D02*
X4218810Y-20399429D01*
X4218810Y-20399429D02*
X4209286Y-20418476D01*
X4209286Y-20418476D02*
X4199762Y-20428000D01*
X4199762Y-20428000D02*
X4180714Y-20437524D01*
X4180714Y-20437524D02*
X4133095Y-20437524D01*
X4133095Y-20437524D02*
X4114048Y-20428000D01*
X4114048Y-20428000D02*
X4104524Y-20418476D01*
X4390238Y-20237524D02*
X4352143Y-20237524D01*
X4352143Y-20237524D02*
X4333095Y-20247048D01*
X4333095Y-20247048D02*
X4323572Y-20256571D01*
X4323572Y-20256571D02*
X4304524Y-20285143D01*
X4304524Y-20285143D02*
X4295000Y-20323238D01*
X4295000Y-20323238D02*
X4295000Y-20399429D01*
X4295000Y-20399429D02*
X4304524Y-20418476D01*
X4304524Y-20418476D02*
X4314048Y-20428000D01*
X4314048Y-20428000D02*
X4333095Y-20437524D01*
X4333095Y-20437524D02*
X4371191Y-20437524D01*
X4371191Y-20437524D02*
X4390238Y-20428000D01*
X4390238Y-20428000D02*
X4399762Y-20418476D01*
X4399762Y-20418476D02*
X4409286Y-20399429D01*
X4409286Y-20399429D02*
X4409286Y-20351810D01*
X4409286Y-20351810D02*
X4399762Y-20332762D01*
X4399762Y-20332762D02*
X4390238Y-20323238D01*
X4390238Y-20323238D02*
X4371191Y-20313714D01*
X4371191Y-20313714D02*
X4333095Y-20313714D01*
X4333095Y-20313714D02*
X4314048Y-20323238D01*
X4314048Y-20323238D02*
X4304524Y-20332762D01*
X4304524Y-20332762D02*
X4295000Y-20351810D01*
X4485476Y-20237524D02*
X4485476Y-20275619D01*
X4561667Y-20237524D02*
X4561667Y-20275619D01*
X4856905Y-20513714D02*
X4847381Y-20504190D01*
X4847381Y-20504190D02*
X4828334Y-20475619D01*
X4828334Y-20475619D02*
X4818810Y-20456571D01*
X4818810Y-20456571D02*
X4809286Y-20428000D01*
X4809286Y-20428000D02*
X4799762Y-20380381D01*
X4799762Y-20380381D02*
X4799762Y-20342286D01*
X4799762Y-20342286D02*
X4809286Y-20294667D01*
X4809286Y-20294667D02*
X4818810Y-20266095D01*
X4818810Y-20266095D02*
X4828334Y-20247048D01*
X4828334Y-20247048D02*
X4847381Y-20218476D01*
X4847381Y-20218476D02*
X4856905Y-20208952D01*
X4923572Y-20256571D02*
X4933096Y-20247048D01*
X4933096Y-20247048D02*
X4952143Y-20237524D01*
X4952143Y-20237524D02*
X4999762Y-20237524D01*
X4999762Y-20237524D02*
X5018810Y-20247048D01*
X5018810Y-20247048D02*
X5028334Y-20256571D01*
X5028334Y-20256571D02*
X5037857Y-20275619D01*
X5037857Y-20275619D02*
X5037857Y-20294667D01*
X5037857Y-20294667D02*
X5028334Y-20323238D01*
X5028334Y-20323238D02*
X4914048Y-20437524D01*
X4914048Y-20437524D02*
X5037857Y-20437524D01*
X5275953Y-20437524D02*
X5275953Y-20237524D01*
X5361667Y-20437524D02*
X5361667Y-20332762D01*
X5361667Y-20332762D02*
X5352143Y-20313714D01*
X5352143Y-20313714D02*
X5333096Y-20304190D01*
X5333096Y-20304190D02*
X5304524Y-20304190D01*
X5304524Y-20304190D02*
X5285477Y-20313714D01*
X5285477Y-20313714D02*
X5275953Y-20323238D01*
X5485477Y-20437524D02*
X5466429Y-20428000D01*
X5466429Y-20428000D02*
X5456905Y-20418476D01*
X5456905Y-20418476D02*
X5447381Y-20399429D01*
X5447381Y-20399429D02*
X5447381Y-20342286D01*
X5447381Y-20342286D02*
X5456905Y-20323238D01*
X5456905Y-20323238D02*
X5466429Y-20313714D01*
X5466429Y-20313714D02*
X5485477Y-20304190D01*
X5485477Y-20304190D02*
X5514048Y-20304190D01*
X5514048Y-20304190D02*
X5533096Y-20313714D01*
X5533096Y-20313714D02*
X5542619Y-20323238D01*
X5542619Y-20323238D02*
X5552143Y-20342286D01*
X5552143Y-20342286D02*
X5552143Y-20399429D01*
X5552143Y-20399429D02*
X5542619Y-20418476D01*
X5542619Y-20418476D02*
X5533096Y-20428000D01*
X5533096Y-20428000D02*
X5514048Y-20437524D01*
X5514048Y-20437524D02*
X5485477Y-20437524D01*
X5666429Y-20437524D02*
X5647381Y-20428000D01*
X5647381Y-20428000D02*
X5637857Y-20408952D01*
X5637857Y-20408952D02*
X5637857Y-20237524D01*
X5818810Y-20428000D02*
X5799762Y-20437524D01*
X5799762Y-20437524D02*
X5761667Y-20437524D01*
X5761667Y-20437524D02*
X5742619Y-20428000D01*
X5742619Y-20428000D02*
X5733096Y-20408952D01*
X5733096Y-20408952D02*
X5733096Y-20332762D01*
X5733096Y-20332762D02*
X5742619Y-20313714D01*
X5742619Y-20313714D02*
X5761667Y-20304190D01*
X5761667Y-20304190D02*
X5799762Y-20304190D01*
X5799762Y-20304190D02*
X5818810Y-20313714D01*
X5818810Y-20313714D02*
X5828334Y-20332762D01*
X5828334Y-20332762D02*
X5828334Y-20351810D01*
X5828334Y-20351810D02*
X5733096Y-20370857D01*
X5904524Y-20428000D02*
X5923572Y-20437524D01*
X5923572Y-20437524D02*
X5961667Y-20437524D01*
X5961667Y-20437524D02*
X5980715Y-20428000D01*
X5980715Y-20428000D02*
X5990238Y-20408952D01*
X5990238Y-20408952D02*
X5990238Y-20399429D01*
X5990238Y-20399429D02*
X5980715Y-20380381D01*
X5980715Y-20380381D02*
X5961667Y-20370857D01*
X5961667Y-20370857D02*
X5933096Y-20370857D01*
X5933096Y-20370857D02*
X5914048Y-20361333D01*
X5914048Y-20361333D02*
X5904524Y-20342286D01*
X5904524Y-20342286D02*
X5904524Y-20332762D01*
X5904524Y-20332762D02*
X5914048Y-20313714D01*
X5914048Y-20313714D02*
X5933096Y-20304190D01*
X5933096Y-20304190D02*
X5961667Y-20304190D01*
X5961667Y-20304190D02*
X5980715Y-20313714D01*
X6056905Y-20513714D02*
X6066429Y-20504190D01*
X6066429Y-20504190D02*
X6085477Y-20475619D01*
X6085477Y-20475619D02*
X6095000Y-20456571D01*
X6095000Y-20456571D02*
X6104524Y-20428000D01*
X6104524Y-20428000D02*
X6114048Y-20380381D01*
X6114048Y-20380381D02*
X6114048Y-20342286D01*
X6114048Y-20342286D02*
X6104524Y-20294667D01*
X6104524Y-20294667D02*
X6095000Y-20266095D01*
X6095000Y-20266095D02*
X6085477Y-20247048D01*
X6085477Y-20247048D02*
X6066429Y-20218476D01*
X6066429Y-20218476D02*
X6056905Y-20208952D01*
X6418810Y-20513714D02*
X6409286Y-20504190D01*
X6409286Y-20504190D02*
X6390238Y-20475619D01*
X6390238Y-20475619D02*
X6380715Y-20456571D01*
X6380715Y-20456571D02*
X6371191Y-20428000D01*
X6371191Y-20428000D02*
X6361667Y-20380381D01*
X6361667Y-20380381D02*
X6361667Y-20342286D01*
X6361667Y-20342286D02*
X6371191Y-20294667D01*
X6371191Y-20294667D02*
X6380715Y-20266095D01*
X6380715Y-20266095D02*
X6390238Y-20247048D01*
X6390238Y-20247048D02*
X6409286Y-20218476D01*
X6409286Y-20218476D02*
X6418810Y-20208952D01*
X6495000Y-20304190D02*
X6495000Y-20437524D01*
X6495000Y-20323238D02*
X6504524Y-20313714D01*
X6504524Y-20313714D02*
X6523572Y-20304190D01*
X6523572Y-20304190D02*
X6552143Y-20304190D01*
X6552143Y-20304190D02*
X6571191Y-20313714D01*
X6571191Y-20313714D02*
X6580715Y-20332762D01*
X6580715Y-20332762D02*
X6580715Y-20437524D01*
X6704524Y-20437524D02*
X6685477Y-20428000D01*
X6685477Y-20428000D02*
X6675953Y-20418476D01*
X6675953Y-20418476D02*
X6666429Y-20399429D01*
X6666429Y-20399429D02*
X6666429Y-20342286D01*
X6666429Y-20342286D02*
X6675953Y-20323238D01*
X6675953Y-20323238D02*
X6685477Y-20313714D01*
X6685477Y-20313714D02*
X6704524Y-20304190D01*
X6704524Y-20304190D02*
X6733096Y-20304190D01*
X6733096Y-20304190D02*
X6752143Y-20313714D01*
X6752143Y-20313714D02*
X6761667Y-20323238D01*
X6761667Y-20323238D02*
X6771191Y-20342286D01*
X6771191Y-20342286D02*
X6771191Y-20399429D01*
X6771191Y-20399429D02*
X6761667Y-20418476D01*
X6761667Y-20418476D02*
X6752143Y-20428000D01*
X6752143Y-20428000D02*
X6733096Y-20437524D01*
X6733096Y-20437524D02*
X6704524Y-20437524D01*
X6828334Y-20304190D02*
X6904524Y-20304190D01*
X6856905Y-20237524D02*
X6856905Y-20408952D01*
X6856905Y-20408952D02*
X6866429Y-20428000D01*
X6866429Y-20428000D02*
X6885477Y-20437524D01*
X6885477Y-20437524D02*
X6904524Y-20437524D01*
X7123572Y-20304190D02*
X7123572Y-20504190D01*
X7123572Y-20313714D02*
X7142619Y-20304190D01*
X7142619Y-20304190D02*
X7180715Y-20304190D01*
X7180715Y-20304190D02*
X7199762Y-20313714D01*
X7199762Y-20313714D02*
X7209286Y-20323238D01*
X7209286Y-20323238D02*
X7218810Y-20342286D01*
X7218810Y-20342286D02*
X7218810Y-20399429D01*
X7218810Y-20399429D02*
X7209286Y-20418476D01*
X7209286Y-20418476D02*
X7199762Y-20428000D01*
X7199762Y-20428000D02*
X7180715Y-20437524D01*
X7180715Y-20437524D02*
X7142619Y-20437524D01*
X7142619Y-20437524D02*
X7123572Y-20428000D01*
X7333096Y-20437524D02*
X7314048Y-20428000D01*
X7314048Y-20428000D02*
X7304524Y-20408952D01*
X7304524Y-20408952D02*
X7304524Y-20237524D01*
X7495000Y-20437524D02*
X7495000Y-20332762D01*
X7495000Y-20332762D02*
X7485477Y-20313714D01*
X7485477Y-20313714D02*
X7466429Y-20304190D01*
X7466429Y-20304190D02*
X7428334Y-20304190D01*
X7428334Y-20304190D02*
X7409286Y-20313714D01*
X7495000Y-20428000D02*
X7475953Y-20437524D01*
X7475953Y-20437524D02*
X7428334Y-20437524D01*
X7428334Y-20437524D02*
X7409286Y-20428000D01*
X7409286Y-20428000D02*
X7399762Y-20408952D01*
X7399762Y-20408952D02*
X7399762Y-20389905D01*
X7399762Y-20389905D02*
X7409286Y-20370857D01*
X7409286Y-20370857D02*
X7428334Y-20361333D01*
X7428334Y-20361333D02*
X7475953Y-20361333D01*
X7475953Y-20361333D02*
X7495000Y-20351810D01*
X7561667Y-20304190D02*
X7637858Y-20304190D01*
X7590239Y-20237524D02*
X7590239Y-20408952D01*
X7590239Y-20408952D02*
X7599762Y-20428000D01*
X7599762Y-20428000D02*
X7618810Y-20437524D01*
X7618810Y-20437524D02*
X7637858Y-20437524D01*
X7780715Y-20428000D02*
X7761667Y-20437524D01*
X7761667Y-20437524D02*
X7723572Y-20437524D01*
X7723572Y-20437524D02*
X7704524Y-20428000D01*
X7704524Y-20428000D02*
X7695000Y-20408952D01*
X7695000Y-20408952D02*
X7695000Y-20332762D01*
X7695000Y-20332762D02*
X7704524Y-20313714D01*
X7704524Y-20313714D02*
X7723572Y-20304190D01*
X7723572Y-20304190D02*
X7761667Y-20304190D01*
X7761667Y-20304190D02*
X7780715Y-20313714D01*
X7780715Y-20313714D02*
X7790239Y-20332762D01*
X7790239Y-20332762D02*
X7790239Y-20351810D01*
X7790239Y-20351810D02*
X7695000Y-20370857D01*
X7961667Y-20437524D02*
X7961667Y-20237524D01*
X7961667Y-20428000D02*
X7942620Y-20437524D01*
X7942620Y-20437524D02*
X7904524Y-20437524D01*
X7904524Y-20437524D02*
X7885477Y-20428000D01*
X7885477Y-20428000D02*
X7875953Y-20418476D01*
X7875953Y-20418476D02*
X7866429Y-20399429D01*
X7866429Y-20399429D02*
X7866429Y-20342286D01*
X7866429Y-20342286D02*
X7875953Y-20323238D01*
X7875953Y-20323238D02*
X7885477Y-20313714D01*
X7885477Y-20313714D02*
X7904524Y-20304190D01*
X7904524Y-20304190D02*
X7942620Y-20304190D01*
X7942620Y-20304190D02*
X7961667Y-20313714D01*
X8037858Y-20513714D02*
X8047381Y-20504190D01*
X8047381Y-20504190D02*
X8066429Y-20475619D01*
X8066429Y-20475619D02*
X8075953Y-20456571D01*
X8075953Y-20456571D02*
X8085477Y-20428000D01*
X8085477Y-20428000D02*
X8095000Y-20380381D01*
X8095000Y-20380381D02*
X8095000Y-20342286D01*
X8095000Y-20342286D02*
X8085477Y-20294667D01*
X8085477Y-20294667D02*
X8075953Y-20266095D01*
X8075953Y-20266095D02*
X8066429Y-20247048D01*
X8066429Y-20247048D02*
X8047381Y-20218476D01*
X8047381Y-20218476D02*
X8037858Y-20208952D01*
M02*
