M48
; DRILL file {KiCad 7.0.2} date Tue May 23 23:28:55 2023
; FORMAT={-:-/ absolute / metric / decimal}
; #@! TF.CreationDate,2023-05-23T23:28:55+01:00
; #@! TF.GenerationSoftware,Kicad,Pcbnew,7.0.2
; #@! TF.FileFunction,Plated,1,4,PTH
FMAT,2
METRIC
; #@! TA.AperFunction,Plated,PTH,ViaDrill
T1C0.200
; #@! TA.AperFunction,Plated,PTH,ViaDrill
T2C0.300
; #@! TA.AperFunction,Plated,PTH,ComponentDrill
T3C0.300
; #@! TA.AperFunction,Plated,PTH,ViaDrill
T4C0.400
; #@! TA.AperFunction,Plated,PTH,ViaDrill
T5C0.450
; #@! TA.AperFunction,Plated,PTH,ComponentDrill
T6C0.500
; #@! TA.AperFunction,Plated,PTH,ViaDrill
T7C0.508
; #@! TA.AperFunction,Plated,PTH,ComponentDrill
T8C0.600
; #@! TA.AperFunction,Plated,PTH,ComponentDrill
T9C0.800
; #@! TA.AperFunction,Plated,PTH,ComponentDrill
T10C1.000
; #@! TA.AperFunction,Plated,PTH,ComponentDrill
T11C1.400
; #@! TA.AperFunction,Plated,PTH,ViaDrill
T12C1.700
; #@! TA.AperFunction,Plated,PTH,ViaDrill
T13C3.000
; #@! TA.AperFunction,Plated,PTH,ComponentDrill
T14C3.500
%
G90
G05
T1
X53.0Y-25.0
X55.75Y-25.5
X55.75Y-28.0
X55.75Y-29.0
X55.75Y-30.0
X55.75Y-31.0
X55.75Y-34.0
X55.75Y-35.0
X56.5Y-30.75
X57.0Y-32.75
X57.75Y-32.0
X57.75Y-35.75
X59.0Y-27.25
X59.25Y-35.75
X60.139Y-35.725
X60.25Y-27.25
X60.25Y-39.5
X60.69Y-36.25
X61.25Y-39.5
X61.5Y-27.25
X61.5Y-36.25
X62.347Y-46.079
X62.5Y-39.5
X62.903Y-45.654
X63.25Y-28.75
X63.623Y-45.968
X63.75Y-39.5
X64.6Y-45.1
X64.685Y-46.009
X65.75Y-42.25
X66.3Y-37.8
X66.6Y-43.5
X69.5Y-24.75
X70.5Y-24.75
X70.54Y-35.424
X72.7Y-37.2
X74.5Y-28.5
X74.8Y-38.0
X75.5Y-28.5
X75.6Y-37.2
X75.6Y-38.0
X76.455Y-31.6
X77.068Y-26.099
X80.5Y-32.25
X80.5Y-33.5
X81.0Y-32.949
X81.25Y-31.5
X81.9Y-26.35
X84.024Y-32.87
X86.5Y-31.75
X89.8Y-26.2
X90.9Y-26.2
X91.3Y-20.2
X91.9Y-26.2
X92.75Y-25.9
X93.7Y-26.2
T2
X73.423Y-28.483
X73.991Y-38.356
T3
X79.358Y-42.715
X79.407Y-41.515
X80.042Y-43.2
X80.667Y-42.705
X81.052Y-41.505
T4
X59.213Y-38.142
X65.0Y-50.2
X65.0Y-51.4
X65.2Y-52.6
X66.3Y-52.6
X70.3Y-50.3
X70.5Y-47.75
X70.562Y-31.752
X70.562Y-32.768
X70.562Y-33.784
X71.578Y-31.752
X71.578Y-33.784
X72.0Y-44.5
X72.0Y-45.5
X72.0Y-49.0
X72.0Y-50.0
X72.0Y-51.0
X72.0Y-52.082
X72.0Y-53.0
X72.594Y-31.752
X72.594Y-32.768
X72.594Y-33.784
X73.0Y-44.5
X73.0Y-45.5
X73.0Y-49.0
X73.0Y-50.0
X73.0Y-51.0
X73.0Y-52.082
X74.0Y-44.5
X74.0Y-45.5
X74.0Y-49.0
X74.0Y-50.0
X74.0Y-51.0
X74.0Y-52.082
X75.5Y-49.0
X75.5Y-50.0
X75.5Y-51.0
X75.5Y-52.082
X75.5Y-53.0
X76.0Y-43.0
X76.0Y-44.5
X76.0Y-45.5
X76.25Y-30.5
X76.5Y-49.0
X76.5Y-50.0
X76.5Y-51.0
X76.5Y-52.082
X76.5Y-53.0
X76.558Y-34.487
X77.0Y-44.5
X77.0Y-45.5
X77.016Y-29.237
X78.0Y-34.5
X86.0Y-42.0
X86.0Y-43.0
X86.0Y-44.0
X86.0Y-45.0
X86.0Y-46.0
X86.0Y-47.0
X87.0Y-34.0
X87.0Y-35.0
X87.0Y-36.0
X87.0Y-37.0
X87.0Y-38.0
X87.0Y-39.0
X87.0Y-40.0
X87.0Y-41.0
X87.0Y-42.0
X87.0Y-43.0
X87.0Y-44.0
X87.0Y-45.0
X87.0Y-46.0
X87.0Y-47.0
X88.0Y-36.0
X88.0Y-37.0
X88.0Y-38.0
X88.0Y-39.0
X88.0Y-43.0
X88.0Y-44.0
X88.0Y-45.0
X88.0Y-46.0
X88.0Y-47.0
X89.0Y-36.0
X89.0Y-37.0
X89.0Y-38.0
X89.0Y-39.0
X89.0Y-43.0
X89.0Y-44.0
X89.0Y-45.0
X89.0Y-46.0
X89.0Y-47.0
X90.0Y-45.0
X90.0Y-46.0
X90.0Y-47.0
X91.0Y-45.0
X91.0Y-46.0
X91.0Y-47.0
T5
X81.794Y-39.0
X82.75Y-37.75
X84.0Y-38.5
X85.0Y-38.5
T6
X30.875Y-185.5
X31.644Y-183.644
X31.644Y-187.356
X33.5Y-182.875
X33.5Y-188.125
X35.356Y-183.644
X35.356Y-187.356
X36.125Y-185.5
X49.519Y-42.144
X50.288Y-40.288
X50.288Y-44.0
X52.144Y-39.519
X52.144Y-44.769
X54.0Y-40.288
X54.0Y-44.0
X54.769Y-42.144
X105.125Y-185.5
X105.894Y-183.644
X105.894Y-187.356
X107.75Y-182.875
X107.75Y-188.125
X109.606Y-183.644
X109.606Y-187.356
X110.375Y-185.5
T7
X39.5Y-19.5
X52.9Y-156.267
X52.9Y-162.1
X54.3Y-156.1
X54.3Y-162.0
X55.7Y-156.0
X55.9Y-162.0
X56.75Y-27.25
X56.9Y-155.9
X57.4Y-161.9
X61.5Y-24.75
X62.0Y-21.5
X62.845Y-35.463
X64.923Y-20.373
X65.0Y-34.0
X65.704Y-34.878
X66.0Y-29.005
X66.346Y-20.373
X67.387Y-24.535
X67.768Y-29.72
X67.8Y-43.5
X68.6Y-40.35
X68.886Y-20.83
X69.597Y-21.744
X70.943Y-38.356
X72.467Y-39.372
X72.9Y-43.1
X75.9Y-40.1
X80.3Y-35.182
X81.5Y-35.25
X85.0Y-41.5
X85.75Y-29.0
T9
X73.25Y-47.25
X73.25Y-54.25
X75.75Y-47.25
X75.75Y-54.25
X88.568Y-34.25
X88.568Y-41.25
X91.068Y-34.25
X91.068Y-41.25
T10
X55.88Y-76.2
X55.88Y-78.74
X55.88Y-81.28
X55.88Y-83.82
X55.88Y-86.36
X55.88Y-88.9
X55.88Y-91.44
X55.88Y-93.98
X55.88Y-96.52
X55.88Y-99.06
X55.88Y-101.6
X55.88Y-104.14
X55.88Y-106.68
X55.88Y-109.22
X55.88Y-111.76
X55.88Y-114.3
X55.88Y-116.84
X55.88Y-119.38
X55.88Y-121.92
X55.88Y-124.46
X55.88Y-127.0
X55.88Y-129.54
X55.88Y-132.08
X55.88Y-134.62
X55.88Y-137.16
X55.88Y-139.7
X55.88Y-142.24
X55.88Y-144.78
X55.88Y-147.32
X55.88Y-149.86
X58.42Y-76.2
X58.42Y-78.74
X58.42Y-81.28
X58.42Y-83.82
X58.42Y-86.36
X58.42Y-88.9
X58.42Y-91.44
X58.42Y-93.98
X58.42Y-96.52
X58.42Y-99.06
X58.42Y-101.6
X58.42Y-104.14
X58.42Y-106.68
X58.42Y-109.22
X58.42Y-111.76
X58.42Y-114.3
X58.42Y-116.84
X58.42Y-119.38
X58.42Y-121.92
X58.42Y-124.46
X58.42Y-127.0
X58.42Y-129.54
X58.42Y-132.08
X58.42Y-134.62
X58.42Y-137.16
X58.42Y-139.7
X58.42Y-142.24
X58.42Y-144.78
X58.42Y-147.32
X58.42Y-149.86
X63.5Y-76.2
X63.5Y-78.74
X63.5Y-81.28
X63.5Y-83.82
X63.5Y-86.36
X63.5Y-88.9
X63.5Y-91.44
X63.5Y-93.98
X63.5Y-96.52
X63.5Y-99.06
X63.5Y-101.6
X63.5Y-104.14
X63.5Y-106.68
X63.5Y-109.22
X63.5Y-111.76
X63.5Y-114.3
X63.5Y-116.84
X63.5Y-119.38
X63.5Y-121.92
X63.5Y-124.46
X63.5Y-127.0
X63.5Y-129.54
X63.5Y-132.08
X63.5Y-134.62
X63.5Y-137.16
X63.5Y-139.7
X63.5Y-142.24
X63.5Y-144.78
X63.5Y-147.32
X63.5Y-149.86
X66.04Y-76.2
X66.04Y-78.74
X66.04Y-81.28
X66.04Y-83.82
X66.04Y-86.36
X66.04Y-88.9
X66.04Y-91.44
X66.04Y-93.98
X66.04Y-96.52
X66.04Y-99.06
X66.04Y-101.6
X66.04Y-104.14
X66.04Y-106.68
X66.04Y-109.22
X66.04Y-111.76
X66.04Y-114.3
X66.04Y-116.84
X66.04Y-119.38
X66.04Y-121.92
X66.04Y-124.46
X66.04Y-127.0
X66.04Y-129.54
X66.04Y-132.08
X66.04Y-134.62
X66.04Y-137.16
X66.04Y-139.7
X66.04Y-142.24
X66.04Y-144.78
X66.04Y-147.32
X66.04Y-149.86
X71.12Y-76.2
X71.12Y-78.74
X71.12Y-81.28
X71.12Y-83.82
X71.12Y-86.36
X71.12Y-88.9
X71.12Y-91.44
X71.12Y-93.98
X71.12Y-96.52
X71.12Y-99.06
X71.12Y-101.6
X71.12Y-104.14
X71.12Y-106.68
X71.12Y-109.22
X71.12Y-111.76
X71.12Y-114.3
X71.12Y-116.84
X71.12Y-119.38
X71.12Y-121.92
X71.12Y-124.46
X71.12Y-127.0
X71.12Y-129.54
X71.12Y-132.08
X71.12Y-134.62
X71.12Y-137.16
X71.12Y-139.7
X71.12Y-142.24
X71.12Y-144.78
X71.12Y-147.32
X71.12Y-149.86
X73.66Y-76.2
X73.66Y-78.74
X73.66Y-81.28
X73.66Y-83.82
X73.66Y-86.36
X73.66Y-88.9
X73.66Y-91.44
X73.66Y-93.98
X73.66Y-96.52
X73.66Y-99.06
X73.66Y-101.6
X73.66Y-104.14
X73.66Y-106.68
X73.66Y-109.22
X73.66Y-111.76
X73.66Y-114.3
X73.66Y-116.84
X73.66Y-119.38
X73.66Y-121.92
X73.66Y-124.46
X73.66Y-127.0
X73.66Y-129.54
X73.66Y-132.08
X73.66Y-134.62
X73.66Y-137.16
X73.66Y-139.7
X73.66Y-142.24
X73.66Y-144.78
X73.66Y-147.32
X73.66Y-149.86
X78.74Y-76.2
X78.74Y-78.74
X78.74Y-81.28
X78.74Y-83.82
X78.74Y-86.36
X78.74Y-88.9
X78.74Y-91.44
X78.74Y-93.98
X78.74Y-96.52
X78.74Y-99.06
X78.74Y-101.6
X78.74Y-104.14
X78.74Y-106.68
X78.74Y-109.22
X78.74Y-111.76
X78.74Y-114.3
X78.74Y-116.84
X78.74Y-119.38
X78.74Y-121.92
X78.74Y-124.46
X78.74Y-127.0
X78.74Y-129.54
X78.74Y-132.08
X78.74Y-134.62
X78.74Y-137.16
X78.74Y-139.7
X78.74Y-142.24
X78.74Y-144.78
X78.74Y-147.32
X78.74Y-149.86
X81.28Y-76.2
X81.28Y-78.74
X81.28Y-81.28
X81.28Y-83.82
X81.28Y-86.36
X81.28Y-88.9
X81.28Y-91.44
X81.28Y-93.98
X81.28Y-96.52
X81.28Y-99.06
X81.28Y-101.6
X81.28Y-104.14
X81.28Y-106.68
X81.28Y-109.22
X81.28Y-111.76
X81.28Y-114.3
X81.28Y-116.84
X81.28Y-119.38
X81.28Y-121.92
X81.28Y-124.46
X81.28Y-127.0
X81.28Y-129.54
X81.28Y-132.08
X81.28Y-134.62
X81.28Y-137.16
X81.28Y-139.7
X81.28Y-142.24
X81.28Y-144.78
X81.28Y-147.32
X81.28Y-149.86
T11
X38.9Y-24.5
X38.9Y-28.0
X38.9Y-31.5
X38.9Y-35.0
X38.9Y-40.344
X38.9Y-43.844
X38.9Y-47.344
X38.9Y-50.844
X38.9Y-56.188
X38.9Y-59.688
X38.9Y-63.188
X38.9Y-66.688
X38.9Y-72.031
X38.9Y-75.531
X38.9Y-79.031
X38.9Y-82.531
X38.9Y-87.875
X38.9Y-91.375
X38.9Y-94.875
X38.9Y-98.375
X38.9Y-103.719
X38.9Y-107.219
X38.9Y-110.719
X38.9Y-114.219
X38.9Y-119.562
X38.9Y-123.062
X38.9Y-126.562
X38.9Y-130.062
X38.9Y-135.406
X38.9Y-138.906
X38.9Y-142.406
X38.9Y-145.906
X38.9Y-151.25
X38.9Y-154.75
X38.9Y-158.25
X38.9Y-161.75
X38.9Y-167.25
X38.9Y-170.75
X38.9Y-174.25
X38.9Y-177.75
X45.219Y-180.1
X48.719Y-180.1
X54.75Y-180.1
X58.25Y-180.1
X64.25Y-180.1
X67.75Y-180.1
X73.75Y-180.1
X77.25Y-180.1
X85.25Y-180.1
X88.75Y-180.1
X92.25Y-180.1
X95.75Y-180.1
X97.3Y-27.0
X100.8Y-27.0
X102.6Y-33.5
X102.6Y-37.0
X102.6Y-42.25
X102.6Y-45.75
X102.6Y-51.25
X102.6Y-54.75
X102.6Y-60.25
X102.6Y-63.75
X102.6Y-69.25
X102.6Y-72.75
X102.6Y-78.2
X102.6Y-81.7
X102.6Y-85.2
X102.6Y-88.7
X102.6Y-94.2
X102.6Y-97.7
X102.6Y-101.2
X102.6Y-104.7
X102.6Y-110.2
X102.6Y-113.7
X102.6Y-117.2
X102.6Y-120.7
X102.6Y-126.2
X102.6Y-129.7
X102.6Y-133.2
X102.6Y-136.7
X102.6Y-142.2
X102.6Y-145.7
X102.6Y-149.2
X102.6Y-152.7
X102.6Y-158.2
X102.6Y-161.7
X102.6Y-165.2
X102.6Y-168.7
X104.3Y-27.0
X107.8Y-27.0
T12
X43.469Y-170.6
X52.5Y-170.0
X61.0Y-170.0
X71.5Y-170.0
X84.0Y-27.75
T13
X87.2Y-59.2
T14
X33.5Y-185.5
X52.144Y-42.144
X107.75Y-185.5
T8
X75.18Y-19.955G85X75.18Y-19.355
G05
X75.18Y-24.385G85X75.18Y-23.285
G05
X83.82Y-19.955G85X83.82Y-19.355
G05
X83.82Y-24.385G85X83.82Y-23.285
G05
T0
M30
