<?xml version="1.0" standalone="no"?>
 <!DOCTYPE svg PUBLIC "-//W3C//DTD SVG 1.1//EN" 
 "http://www.w3.org/Graphics/SVG/1.1/DTD/svg11.dtd"> 
<svg
  xmlns:svg="http://www.w3.org/2000/svg"
  xmlns="http://www.w3.org/2000/svg"
  xmlns:xlink="http://www.w3.org/1999/xlink"
  version="1.1"
  width="84.6582mm" height="186.6392mm" viewBox="0.0000 0.0000 84.6582 186.6392">
<title>SVG Image created as kat_control_board-F_Courtyard.svg date 2023/05/31 16:38:37 </title>
  <desc>Image generated by PCBNEW </desc>
<g style="fill:#000000; fill-opacity:1.0000;stroke:#000000; stroke-opacity:1.0000;
stroke-linecap:round; stroke-linejoin:round;"
 transform="translate(0 0) scale(1 1)">
</g>
<g style="fill:#000000; fill-opacity:0.0; 
stroke:#000000; stroke-width:0.0000; stroke-opacity:1; 
stroke-linecap:round; stroke-linejoin:round;">
</g>
<g style="fill:#FF26E2; fill-opacity:0.0; 
stroke:#FF26E2; stroke-width:0.0000; stroke-opacity:1; 
stroke-linecap:round; stroke-linejoin:round;">
</g>
<g style="fill:#FF26E2; fill-opacity:0.0; 
stroke:#FF26E2; stroke-width:0.0500; stroke-opacity:1; 
stroke-linecap:round; stroke-linejoin:round;">
<path d="M51.3363 17.8075
L51.3363 28.2075
" />
<path d="M51.3363 28.2075
L58.7363 28.2075
" />
<path d="M58.7363 28.2075
L58.7363 17.8075
" />
<path d="M58.7363 17.8075
L51.3363 17.8075
" />
<path d="M32.5513 8.8125
L32.5513 9.7525
" />
<path d="M30.6913 9.7525
L30.6913 8.8125
" />
<path d="M32.5513 9.7525
L30.6913 9.7525
" />
<path d="M30.6913 8.8125
L32.5513 8.8125
" />
<path d="M43.7763 23.0365
L43.7763 24.8565
" />
<path d="M42.8563 23.0365
L43.7763 23.0365
" />
<path d="M43.7763 24.8565
L42.8563 24.8565
" />
<path d="M42.8563 24.8565
L42.8563 23.0365
" />
<path d="M54.5413 33.5525
L52.6813 33.5525
" />
<path d="M54.5413 32.6125
L54.5413 33.5525
" />
<path d="M52.6813 33.5525
L52.6813 32.6125
" />
<path d="M52.6813 32.6125
L54.5413 32.6125
" />
<path d="M30.1813 31.2525
L30.1813 33.1125
" />
<path d="M29.2413 31.2525
L30.1813 31.2525
" />
<path d="M30.1813 33.1125
L29.2413 33.1125
" />
<path d="M29.2413 33.1125
L29.2413 31.2525
" />
<path d="M54.5413 32.5525
L52.6813 32.5525
" />
<path d="M54.5413 31.6125
L54.5413 32.5525
" />
<path d="M52.6813 32.5525
L52.6813 31.6125
" />
<path d="M52.6813 31.6125
L54.5413 31.6125
" />
<path d="M60.3113 9.7825
L56.9113 9.7825
" />
<path d="M56.9113 9.7825
L56.9113 13.8825
" />
<path d="M60.3113 13.8825
L60.3113 9.7825
" />
<path d="M56.9113 13.8825
L60.3113 13.8825
" />
<path d="M27.0513 20.5525
L25.1913 20.5525
" />
<path d="M27.0513 19.6125
L27.0513 20.5525
" />
<path d="M25.1913 20.5525
L25.1913 19.6125
" />
<path d="M25.1913 19.6125
L27.0513 19.6125
" />
<path d="M27.0513 17.5525
L25.1913 17.5525
" />
<path d="M27.0513 16.6125
L27.0513 17.5525
" />
<path d="M25.1913 17.5525
L25.1913 16.6125
" />
<path d="M25.1913 16.6125
L27.0513 16.6125
" />
<path d="M34.4017 167.4450
L41.4017 167.4450
" />
<path d="M34.4017 170.9450
L34.4017 167.4450
" />
<path d="M41.4017 167.4450
L41.4017 170.9450
" />
<path d="M41.4017 170.9450
L34.4017 170.9450
" />
<path d="M34.4513 12.8325
L40.1713 12.8325
" />
<path d="M40.1713 12.8325
L40.1713 3.5325
" />
<path d="M34.4513 3.5325
L34.4513 12.8325
" />
<path d="M40.1713 3.5325
L34.4513 3.5325
" />
<path d="M38.0303 15.4865
L38.0303 13.6665
" />
<path d="M38.9503 15.4865
L38.0303 15.4865
" />
<path d="M38.0303 13.6665
L38.9503 13.6665
" />
<path d="M38.9503 13.6665
L38.9503 15.4865
" />
<path d="M57.4413 6.7025
L57.4413 4.8425
" />
<path d="M58.3813 6.7025
L57.4413 6.7025
" />
<path d="M57.4413 4.8425
L58.3813 4.8425
" />
<path d="M58.3813 4.8425
L58.3813 6.7025
" />
<path d="M44.7134 161.5325
L44.7134 164.9325
" />
<path d="M44.7134 164.9325
L48.5534 164.9325
" />
<path d="M48.5534 161.5325
L44.7134 161.5325
" />
<path d="M48.5534 164.9325
L48.5534 161.5325
" />
<path d="M26.4863 46.1825
L35.1363 46.1825
" />
<path d="M35.1363 46.1825
L35.1363 42.5825
" />
<path d="M26.4863 42.5825
L26.4863 46.1825
" />
<path d="M35.1363 42.5825
L26.4863 42.5825
" />
<path d="M59.1413 36.7625
L59.1413 34.9025
" />
<path d="M60.0813 36.7625
L59.1413 36.7625
" />
<path d="M59.1413 34.9025
L60.0813 34.9025
" />
<path d="M60.0813 34.9025
L60.0813 36.7625
" />
<path d="M33.3113 59.4825
L33.3113 136.7325
" />
<path d="M33.3113 136.7325
L39.4613 136.7325
" />
<path d="M39.4613 59.4825
L33.3113 59.4825
" />
<path d="M39.4613 136.7325
L39.4613 59.4825
" />
<path d="M27.0513 19.5525
L25.1913 19.5525
" />
<path d="M27.0513 18.6125
L27.0513 19.5525
" />
<path d="M25.1913 19.5525
L25.1913 18.6125
" />
<path d="M25.1913 18.6125
L27.0513 18.6125
" />
<path d="M25.1509 161.5325
L25.1509 164.9325
" />
<path d="M25.1509 164.9325
L28.9909 164.9325
" />
<path d="M28.9909 161.5325
L25.1509 161.5325
" />
<path d="M28.9909 164.9325
L28.9909 161.5325
" />
<circle cx="5.1113" cy="6.8325" r="3.7500" /> 
<path d="M48.1813 11.6125
L50.0413 11.6125
" />
<path d="M48.1813 12.5525
L48.1813 11.6125
" />
<path d="M50.0413 11.6125
L50.0413 12.5525
" />
<path d="M50.0413 12.5525
L48.1813 12.5525
" />
<path d="M50.4413 35.6525
L48.5813 35.6525
" />
<path d="M50.4413 34.7125
L50.4413 35.6525
" />
<path d="M48.5813 35.6525
L48.5813 34.7125
" />
<path d="M48.5813 34.7125
L50.4413 34.7125
" />
<circle cx="5.1113" cy="181.3325" r="3.7500" /> 
<path d="M36.1813 31.2325
L36.1813 33.0925
" />
<path d="M35.2413 31.2325
L36.1813 31.2325
" />
<path d="M36.1813 33.0925
L35.2413 33.0925
" />
<path d="M35.2413 33.0925
L35.2413 31.2325
" />
<path d="M37.8213 28.6725
L37.8213 30.4925
" />
<path d="M36.9013 28.6725
L37.8213 28.6725
" />
<path d="M37.8213 30.4925
L36.9013 30.4925
" />
<path d="M36.9013 30.4925
L36.9013 28.6725
" />
<path d="M58.1513 36.7425
L58.1513 34.9225
" />
<path d="M59.0713 36.7425
L58.1513 36.7425
" />
<path d="M58.1513 34.9225
L59.0713 34.9225
" />
<path d="M59.0713 34.9225
L59.0713 36.7425
" />
<path d="M56.6413 33.0225
L56.6413 31.1625
" />
<path d="M57.5813 33.0225
L56.6413 33.0225
" />
<path d="M56.6413 31.1625
L57.5813 31.1625
" />
<path d="M57.5813 31.1625
L57.5813 33.0225
" />
<path d="M58.3813 40.5625
L58.3813 37.6025
" />
<path d="M59.8413 40.5625
L58.3813 40.5625
" />
<path d="M58.3813 37.6025
L59.8413 37.6025
" />
<path d="M59.8413 37.6025
L59.8413 40.5625
" />
<path d="M40.7353 23.8575
L42.5953 23.8575
" />
<path d="M40.7353 24.7975
L40.7353 23.8575
" />
<path d="M42.5953 23.8575
L42.5953 24.7975
" />
<path d="M42.5953 24.7975
L40.7353 24.7975
" />
<path d="M36.6363 22.4825
L29.6363 22.4825
" />
<path d="M29.6363 22.4825
L29.6363 30.1825
" />
<path d="M36.6363 30.1825
L36.6363 22.4825
" />
<path d="M29.6363 30.1825
L36.6363 30.1825
" />
<path d="M60.2113 170.7825
L67.2113 170.7825
" />
<path d="M60.2113 174.2825
L60.2113 170.7825
" />
<path d="M67.2113 170.7825
L67.2113 174.2825
" />
<path d="M67.2113 174.2825
L60.2113 174.2825
" />
<path d="M27.0513 14.5525
L25.1913 14.5525
" />
<path d="M27.0513 13.6125
L27.0513 14.5525
" />
<path d="M25.1913 14.5525
L25.1913 13.6125
" />
<path d="M25.1913 13.6125
L27.0513 13.6125
" />
<path d="M56.4313 11.0575
L56.4313 1.6375
" />
<path d="M56.4313 11.0575
L45.7913 11.0575
" />
<path d="M56.4313 1.6375
L45.7913 1.6375
" />
<path d="M45.7913 11.0575
L45.7913 1.6375
" />
<path d="M27.0513 13.5525
L25.1913 13.5525
" />
<path d="M27.0513 12.6125
L27.0513 13.5525
" />
<path d="M25.1913 13.5525
L25.1913 12.6125
" />
<path d="M25.1913 12.6125
L27.0513 12.6125
" />
<path d="M40.9313 59.4825
L40.9313 136.7325
" />
<path d="M40.9313 136.7325
L47.0813 136.7325
" />
<path d="M47.0813 59.4825
L40.9313 59.4825
" />
<path d="M47.0813 136.7325
L47.0813 59.4825
" />
<path d="M33.6509 161.5325
L33.6509 164.9325
" />
<path d="M33.6509 164.9325
L37.4909 164.9325
" />
<path d="M37.4909 161.5325
L33.6509 161.5325
" />
<path d="M37.4909 164.9325
L37.4909 161.5325
" />
<path d="M39.1613 32.4400
L42.5613 32.4400
" />
<path d="M42.5613 32.4400
L42.5613 28.6000
" />
<path d="M39.1613 28.6000
L39.1613 32.4400
" />
<path d="M42.5613 28.6000
L39.1613 28.6000
" />
<path d="M21.5238 34.6825
L21.5238 31.2825
" />
<path d="M21.5238 31.2825
L17.4238 31.2825
" />
<path d="M17.4238 34.6825
L21.5238 34.6825
" />
<path d="M17.4238 31.2825
L17.4238 34.6825
" />
<path d="M27.0513 18.5525
L25.1913 18.5525
" />
<path d="M27.0513 17.6125
L27.0513 18.5525
" />
<path d="M25.1913 18.5525
L25.1913 17.6125
" />
<path d="M25.1913 17.6125
L27.0513 17.6125
" />
<path d="M52.3413 36.6025
L52.3413 39.5625
" />
<path d="M50.8813 36.6025
L52.3413 36.6025
" />
<path d="M52.3413 39.5625
L50.8813 39.5625
" />
<path d="M50.8813 39.5625
L50.8813 36.6025
" />
<circle cx="47.4289" cy="47.8325" r="3.4000" /> 
<path d="M16.5613 23.3700
L19.9613 23.3700
" />
<path d="M19.9613 23.3700
L19.9613 19.2700
" />
<path d="M16.5613 19.2700
L16.5613 23.3700
" />
<path d="M19.9613 19.2700
L16.5613 19.2700
" />
<path d="M17.6101 164.7550
L17.6101 166.6150
" />
<path d="M16.6701 164.7550
L17.6101 164.7550
" />
<path d="M17.6101 166.6150
L16.6701 166.6150
" />
<path d="M16.6701 166.6150
L16.6701 164.7550
" />
<path d="M32.9784 162.7925
L32.9784 164.6525
" />
<path d="M32.0384 162.7925
L32.9784 162.7925
" />
<path d="M32.9784 164.6525
L32.0384 164.6525
" />
<path d="M32.0384 164.6525
L32.0384 162.7925
" />
<path d="M19.2409 161.3025
L19.2409 163.1625
" />
<path d="M18.3009 161.3025
L19.2409 161.3025
" />
<path d="M19.2409 163.1625
L18.3009 163.1625
" />
<path d="M18.3009 163.1625
L18.3009 161.3025
" />
<path d="M47.4283 15.3315
L47.4283 13.5115
" />
<path d="M48.3483 15.3315
L47.4283 15.3315
" />
<path d="M47.4283 13.5115
L48.3483 13.5115
" />
<path d="M48.3483 13.5115
L48.3483 15.3315
" />
<path d="M39.0313 13.6925
L39.0313 21.9325
" />
<path d="M39.0313 21.9325
L47.2713 21.9325
" />
<path d="M47.2713 13.6925
L39.0313 13.6925
" />
<path d="M47.2713 21.9325
L47.2713 13.6925
" />
<path d="M66.3813 15.6125
L68.2413 15.6125
" />
<path d="M66.3813 16.5525
L66.3813 15.6125
" />
<path d="M68.2413 15.6125
L68.2413 16.5525
" />
<path d="M68.2413 16.5525
L66.3813 16.5525
" />
<path d="M38.6663 19.5297
L36.8463 19.5297
" />
<path d="M38.6663 18.6097
L38.6663 19.5297
" />
<path d="M36.8463 19.5297
L36.8463 18.6097
" />
<path d="M36.8463 18.6097
L38.6663 18.6097
" />
<path d="M24.4376 167.4450
L31.4376 167.4450
" />
<path d="M24.4376 170.9450
L24.4376 167.4450
" />
<path d="M31.4376 167.4450
L31.4376 170.9450
" />
<path d="M31.4376 170.9450
L24.4376 170.9450
" />
<path d="M52.6238 35.5475
L57.7238 35.5475
" />
<path d="M52.6238 40.6475
L52.6238 35.5475
" />
<path d="M57.7238 35.5475
L57.7238 40.6475
" />
<path d="M57.7238 40.6475
L52.6238 40.6475
" />
<path d="M47.5143 18.5335
L49.3343 18.5335
" />
<path d="M47.5143 19.4535
L47.5143 18.5335
" />
<path d="M49.3343 18.5335
L49.3343 19.4535
" />
<path d="M49.3343 19.4535
L47.5143 19.4535
" />
<path d="M33.1813 31.2325
L33.1813 33.0925
" />
<path d="M32.2413 31.2325
L33.1813 31.2325
" />
<path d="M33.1813 33.0925
L32.2413 33.0925
" />
<path d="M32.2413 33.0925
L32.2413 31.2325
" />
<path d="M31.1813 31.2325
L31.1813 33.0925
" />
<path d="M30.2413 31.2325
L31.1813 31.2325
" />
<path d="M31.1813 33.0925
L30.2413 33.0925
" />
<path d="M30.2413 33.0925
L30.2413 31.2325
" />
<path d="M60.4513 13.7625
L60.4513 11.9425
" />
<path d="M61.3713 13.7625
L60.4513 13.7625
" />
<path d="M60.4513 11.9425
L61.3713 11.9425
" />
<path d="M61.3713 11.9425
L61.3713 13.7625
" />
<path d="M38.1413 27.7625
L38.1413 25.9025
" />
<path d="M39.0813 27.7625
L38.1413 27.7625
" />
<path d="M38.1413 25.9025
L39.0813 25.9025
" />
<path d="M39.0813 25.9025
L39.0813 27.7625
" />
<path d="M46.5413 25.5125
L46.5413 23.6525
" />
<path d="M47.4813 25.5125
L46.5413 25.5125
" />
<path d="M46.5413 23.6525
L47.4813 23.6525
" />
<path d="M47.4813 23.6525
L47.4813 25.5125
" />
<path d="M66.3813 16.6125
L68.2413 16.6125
" />
<path d="M66.3813 17.5525
L66.3813 16.6125
" />
<path d="M68.2413 16.6125
L68.2413 17.5525
" />
<path d="M68.2413 17.5525
L66.3813 17.5525
" />
<path d="M50.1513 27.7225
L50.1513 25.9025
" />
<path d="M51.0713 27.7225
L50.1513 27.7225
" />
<path d="M50.1513 25.9025
L51.0713 25.9025
" />
<path d="M51.0713 25.9025
L51.0713 27.7225
" />
<path d="M61.4413 6.7125
L61.4413 4.8525
" />
<path d="M62.3813 6.7125
L61.4413 6.7125
" />
<path d="M61.4413 4.8525
L62.3813 4.8525
" />
<path d="M62.3813 4.8525
L62.3813 6.7125
" />
<path d="M35.9613 19.9075
L35.9613 12.9075
" />
<path d="M35.9613 12.9075
L28.2613 12.9075
" />
<path d="M28.2613 19.9075
L35.9613 19.9075
" />
<path d="M28.2613 12.9075
L28.2613 19.9075
" />
<path d="M35.9238 40.5325
L35.9238 43.9325
" />
<path d="M35.9238 43.9325
L40.0238 43.9325
" />
<path d="M40.0238 40.5325
L35.9238 40.5325
" />
<path d="M40.0238 43.9325
L40.0238 40.5325
" />
<path d="M42.0309 161.3625
L43.8909 161.3625
" />
<path d="M42.0309 162.3025
L42.0309 161.3625
" />
<path d="M43.8909 161.3625
L43.8909 162.3025
" />
<path d="M43.8909 162.3025
L42.0309 162.3025
" />
<circle cx="64.9289" cy="30.8325" r="3.4000" /> 
<path d="M37.1813 31.2325
L37.1813 33.0925
" />
<path d="M36.2413 31.2325
L37.1813 31.2325
" />
<path d="M37.1813 33.0925
L36.2413 33.0925
" />
<path d="M36.2413 33.0925
L36.2413 31.2325
" />
<path d="M45.6813 24.9415
L45.6813 26.7615
" />
<path d="M44.7613 24.9415
L45.6813 24.9415
" />
<path d="M45.6813 26.7615
L44.7613 26.7615
" />
<path d="M44.7613 26.7615
L44.7613 24.9415
" />
<path d="M66.3713 14.6125
L68.2313 14.6125
" />
<path d="M66.3713 15.5525
L66.3713 14.6125
" />
<path d="M68.2313 14.6125
L68.2313 15.5525
" />
<path d="M68.2313 15.5525
L66.3713 15.5525
" />
<circle cx="79.3613" cy="181.4763" r="3.7500" /> 
<path d="M55.6413 33.0125
L55.6413 31.1525
" />
<path d="M56.5813 33.0125
L55.6413 33.0125
" />
<path d="M55.6413 31.1525
L56.5813 31.1525
" />
<path d="M56.5813 31.1525
L56.5813 33.0125
" />
<path d="M34.0813 9.8925
L34.0813 11.7525
" />
<path d="M33.1413 9.8925
L34.0813 9.8925
" />
<path d="M34.0813 11.7525
L33.1413 11.7525
" />
<path d="M33.1413 11.7525
L33.1413 9.8925
" />
<path d="M59.4413 6.7125
L59.4413 4.8525
" />
<path d="M60.3813 6.7125
L59.4413 6.7125
" />
<path d="M59.4413 4.8525
L60.3813 4.8525
" />
<path d="M60.3813 4.8525
L60.3813 6.7125
" />
<path d="M32.0813 9.9025
L32.0813 11.7625
" />
<path d="M31.1413 9.9025
L32.0813 9.9025
" />
<path d="M32.0813 11.7625
L31.1413 11.7625
" />
<path d="M31.1413 11.7625
L31.1413 9.9025
" />
<path d="M58.4413 6.7025
L58.4413 4.8425
" />
<path d="M59.3813 6.7025
L58.4413 6.7025
" />
<path d="M58.4413 4.8425
L59.3813 4.8425
" />
<path d="M59.3813 4.8425
L59.3813 6.7025
" />
<path d="M18.2826 163.4950
L18.2826 166.8950
" />
<path d="M18.2826 166.8950
L22.1226 166.8950
" />
<path d="M22.1226 163.4950
L18.2826 163.4950
" />
<path d="M22.1226 166.8950
L22.1226 163.4950
" />
<path d="M44.0709 167.4450
L51.0709 167.4450
" />
<path d="M44.0709 170.9450
L44.0709 167.4450
" />
<path d="M51.0709 167.4450
L51.0709 170.9450
" />
<path d="M51.0709 170.9450
L44.0709 170.9450
" />
<path d="M45.4513 12.6225
L47.2713 12.6225
" />
<path d="M45.4513 13.5425
L45.4513 12.6225
" />
<path d="M47.2713 12.6225
L47.2713 13.5425
" />
<path d="M47.2713 13.5425
L45.4513 13.5425
" />
<path d="M25.6913 59.4825
L25.6913 136.7325
" />
<path d="M25.6913 136.7325
L31.8413 136.7325
" />
<path d="M31.8413 59.4825
L25.6913 59.4825
" />
<path d="M31.8413 136.7325
L31.8413 59.4825
" />
<path d="M28.4513 20.1225
L30.2713 20.1225
" />
<path d="M28.4513 21.0425
L28.4513 20.1225
" />
<path d="M30.2713 20.1225
L30.2713 21.0425
" />
<path d="M30.2713 21.0425
L28.4513 21.0425
" />
<path d="M44.0409 162.7925
L44.0409 164.6525
" />
<path d="M43.1009 162.7925
L44.0409 162.7925
" />
<path d="M44.0409 164.6525
L43.1009 164.6525
" />
<path d="M43.1009 164.6525
L43.1009 162.7925
" />
<path d="M40.6513 11.7425
L40.6513 9.9225
" />
<path d="M41.5713 11.7425
L40.6513 11.7425
" />
<path d="M40.6513 9.9225
L41.5713 9.9225
" />
<path d="M41.5713 9.9225
L41.5713 11.7425
" />
<path d="M41.9613 7.7700
L45.3613 7.7700
" />
<path d="M45.3613 7.7700
L45.3613 3.6700
" />
<path d="M41.9613 3.6700
L41.9613 7.7700
" />
<path d="M45.3613 3.6700
L41.9613 3.6700
" />
<path d="M24.6034 162.8625
L24.6034 164.7225
" />
<path d="M23.6634 162.8625
L24.6034 162.8625
" />
<path d="M24.6034 164.7225
L23.6634 164.7225
" />
<path d="M23.6634 164.7225
L23.6634 162.8625
" />
<path d="M41.6513 11.7425
L41.6513 9.9225
" />
<path d="M42.5713 11.7425
L41.6513 11.7425
" />
<path d="M41.6513 9.9225
L42.5713 9.9225
" />
<path d="M42.5713 9.9225
L42.5713 11.7425
" />
<path d="M54.2913 13.0525
L52.4313 13.0525
" />
<path d="M54.2913 12.1125
L54.2913 13.0525
" />
<path d="M52.4313 13.0525
L52.4313 12.1125
" />
<path d="M52.4313 12.1125
L54.2913 12.1125
" />
<path d="M57.6413 33.0125
L57.6413 31.1525
" />
<path d="M58.5813 33.0125
L57.6413 33.0125
" />
<path d="M57.6413 31.1525
L58.5813 31.1525
" />
<path d="M58.5813 31.1525
L58.5813 33.0125
" />
<path d="M50.3988 13.6825
L50.3988 17.0825
" />
<path d="M50.3988 17.0825
L54.4988 17.0825
" />
<path d="M54.4988 13.6825
L50.3988 13.6825
" />
<path d="M54.4988 17.0825
L54.4988 13.6825
" />
<path d="M32.1813 31.2325
L32.1813 33.0925
" />
<path d="M31.2413 31.2325
L32.1813 31.2325
" />
<path d="M32.1813 33.0925
L31.2413 33.0925
" />
<path d="M31.2413 33.0925
L31.2413 31.2325
" />
<path d="M53.6513 35.4925
L53.6513 33.6725
" />
<path d="M54.5713 35.4925
L53.6513 35.4925
" />
<path d="M53.6513 33.6725
L54.5713 33.6725
" />
<path d="M54.5713 33.6725
L54.5713 35.4925
" />
<path d="M39.4513 27.5425
L39.4513 25.7225
" />
<path d="M40.3713 27.5425
L39.4513 27.5425
" />
<path d="M39.4513 25.7225
L40.3713 25.7225
" />
<path d="M40.3713 25.7225
L40.3713 27.5425
" />
<path d="M46.1213 24.8425
L44.3013 24.8425
" />
<path d="M46.1213 23.9225
L46.1213 24.8425
" />
<path d="M44.3013 24.8425
L44.3013 23.9225
" />
<path d="M44.3013 23.9225
L46.1213 23.9225
" />
<circle cx="63.1113" cy="79.3325" r="3.7500" /> 
<path d="M31.0309 161.3625
L32.8909 161.3625
" />
<path d="M31.0309 162.3025
L31.0309 161.3625
" />
<path d="M32.8909 161.3625
L32.8909 162.3025
" />
<path d="M32.8909 162.3025
L31.0309 162.3025
" />
<path d="M64.6813 9.4625
L64.6813 6.5025
" />
<path d="M66.1413 9.4625
L64.6813 9.4625
" />
<path d="M64.6813 6.5025
L66.1413 6.5025
" />
<path d="M66.1413 6.5025
L66.1413 9.4625
" />
<path d="M40.4113 24.9525
L40.4113 28.3525
" />
<path d="M40.4113 28.3525
L44.6113 28.3525
" />
<path d="M44.6113 24.9525
L40.4113 24.9525
" />
<path d="M44.6113 28.3525
L44.6113 24.9525
" />
<path d="M48.5513 59.4825
L48.5513 136.7325
" />
<path d="M48.5513 136.7325
L54.7013 136.7325
" />
<path d="M54.7013 59.4825
L48.5513 59.4825
" />
<path d="M54.7013 136.7325
L54.7013 59.4825
" />
<path d="M15.6401 167.4450
L22.6401 167.4450
" />
<path d="M15.6401 170.9450
L15.6401 167.4450
" />
<path d="M22.6401 167.4450
L22.6401 170.9450
" />
<path d="M22.6401 170.9450
L15.6401 170.9450
" />
<path d="M66.3813 18.6125
L68.2413 18.6125
" />
<path d="M66.3813 19.5525
L66.3813 18.6125
" />
<path d="M68.2413 18.6125
L68.2413 19.5525
" />
<path d="M68.2413 19.5525
L66.3813 19.5525
" />
<circle cx="47.4289" cy="40.8325" r="3.4000" /> 
<path d="M64.2813 5.4125
L66.1413 5.4125
" />
<path d="M64.2813 6.3525
L64.2813 5.4125
" />
<path d="M66.1413 5.4125
L66.1413 6.3525
" />
<path d="M66.1413 6.3525
L64.2813 6.3525
" />
<path d="M60.4413 6.7125
L60.4413 4.8525
" />
<path d="M61.3813 6.7125
L60.4413 6.7125
" />
<path d="M60.4413 4.8525
L61.3813 4.8525
" />
<path d="M61.3813 4.8525
L61.3813 6.7125
" />
<path d="M27.0513 16.5525
L25.1913 16.5525
" />
<path d="M27.0513 15.6125
L27.0513 16.5525
" />
<path d="M25.1913 16.5525
L25.1913 15.6125
" />
<path d="M25.1913 15.6125
L27.0513 15.6125
" />
<path d="M52.6413 35.5125
L52.6413 33.6525
" />
<path d="M53.5813 35.5125
L52.6413 35.5125
" />
<path d="M52.6413 33.6525
L53.5813 33.6525
" />
<path d="M53.5813 33.6525
L53.5813 35.5125
" />
<path d="M45.6813 33.7750
L45.6813 30.8150
" />
<path d="M47.1413 33.7750
L45.6813 33.7750
" />
<path d="M45.6813 30.8150
L47.1413 30.8150
" />
<path d="M47.1413 30.8150
L47.1413 33.7750
" />
<path d="M26.2409 159.5125
L26.2409 161.3725
" />
<path d="M25.3009 159.5125
L26.2409 159.5125
" />
<path d="M26.2409 161.3725
L25.3009 161.3725
" />
<path d="M25.3009 161.3725
L25.3009 159.5125
" />
<path d="M22.2238 13.1325
L22.2238 9.7325
" />
<path d="M22.2238 9.7325
L18.1238 9.7325
" />
<path d="M18.1238 13.1325
L22.2238 13.1325
" />
<path d="M18.1238 9.7325
L18.1238 13.1325
" />
<path d="M35.1813 31.2425
L35.1813 33.1025
" />
<path d="M34.2413 31.2425
L35.1813 31.2425
" />
<path d="M35.1813 33.1025
L34.2413 33.1025
" />
<path d="M34.2413 33.1025
L34.2413 31.2425
" />
<circle cx="64.8613" cy="37.8325" r="3.4000" /> 
<path d="M57.4713 8.6225
L59.2913 8.6225
" />
<path d="M57.4713 9.5425
L57.4713 8.6225
" />
<path d="M59.2913 8.6225
L59.2913 9.5425
" />
<path d="M59.2913 9.5425
L57.4713 9.5425
" />
<path d="M66.3713 17.6125
L68.2313 17.6125
" />
<path d="M66.3713 18.5525
L66.3713 17.6125
" />
<path d="M68.2313 17.6125
L68.2313 18.5525
" />
<path d="M68.2313 18.5525
L66.3713 18.5525
" />
<path d="M45.5913 9.5275
L45.5913 12.4875
" />
<path d="M44.1313 9.5275
L45.5913 9.5275
" />
<path d="M45.5913 12.4875
L44.1313 12.4875
" />
<path d="M44.1313 12.4875
L44.1313 9.5275
" />
<path d="M44.0913 9.3525
L44.0913 12.3125
" />
<path d="M42.6313 9.3525
L44.0913 9.3525
" />
<path d="M44.0913 12.3125
L42.6313 12.3125
" />
<path d="M42.6313 12.3125
L42.6313 9.3525
" />
<path d="M27.0413 15.5525
L25.1813 15.5525
" />
<path d="M27.0413 14.6125
L27.0413 15.5525
" />
<path d="M25.1813 15.5525
L25.1813 14.6125
" />
<path d="M25.1813 14.6125
L27.0413 14.6125
" />
<path d="M29.7413 12.4525
L27.8813 12.4525
" />
<path d="M29.7413 11.5125
L29.7413 12.4525
" />
<path d="M27.8813 12.4525
L27.8813 11.5125
" />
<path d="M27.8813 11.5125
L29.7413 11.5125
" />
<path d="M35.1013 2.5225
L36.9213 2.5225
" />
<path d="M35.1013 3.4425
L35.1013 2.5225
" />
<path d="M36.9213 2.5225
L36.9213 3.4425
" />
<path d="M36.9213 3.4425
L35.1013 3.4425
" />
<path d="M48.4513 35.6525
L46.5913 35.6525
" />
<path d="M48.4513 34.7125
L48.4513 35.6525
" />
<path d="M46.5913 35.6525
L46.5913 34.7125
" />
<path d="M46.5913 34.7125
L48.4513 34.7125
" />
<path d="M34.1813 31.2425
L34.1813 33.1025
" />
<path d="M33.2413 31.2425
L34.1813 31.2425
" />
<path d="M34.1813 33.1025
L33.2413 33.1025
" />
<path d="M33.2413 33.1025
L33.2413 31.2425
" />
<g >
</g>
<g >
</g>
<g >
</g>
<g >
</g>
<g >
</g>
<g >
</g>
<g >
</g>
<g >
</g>
<g >
</g>
<g >
</g>
<g >
</g>
<g >
</g>
<g >
</g>
<g >
</g>
<g >
</g>
<g >
</g>
<g >
</g>
<g >
</g>
<g >
</g>
<g >
</g>
<g >
</g>
<g >
</g>
<g >
</g>
<g >
</g>
<g >
</g>
<g >
</g>
<g >
</g>
<g >
</g>
<g >
</g>
<g >
</g>
<g >
</g>
<g >
</g>
<g >
</g>
<g >
</g>
<g >
</g>
<g >
</g>
<g >
</g>
<g >
</g>
<g >
</g>
<g >
</g>
<g >
</g>
<g >
</g>
<g >
</g>
<g >
</g>
<g >
</g>
<g >
</g>
<g >
</g>
<g >
</g>
<g >
</g>
<g >
</g>
<g >
</g>
<g >
</g>
<g >
</g>
<g >
</g>
<g >
</g>
<g >
</g>
<g >
</g>
<g >
</g>
<g >
</g>
<g >
</g>
<g >
</g>
<g >
</g>
<g >
</g>
<g >
</g>
<g >
</g>
<g >
</g>
<g >
</g>
<g >
</g>
<g >
</g>
<g >
</g>
<g >
</g>
<g >
</g>
<g >
</g>
<g >
</g>
<g >
</g>
<g >
</g>
<g >
</g>
<g >
</g>
<g >
</g>
<g >
</g>
<g >
</g>
<g >
</g>
<g >
</g>
<g >
</g>
<g >
</g>
<g >
</g>
<g >
</g>
<g >
</g>
<g >
</g>
<g >
</g>
<g >
</g>
<g >
</g>
<g >
</g>
<g >
</g>
<g >
</g>
<g >
</g>
<g >
</g>
<g >
</g>
<g >
</g>
<g >
</g>
<g >
</g>
<g >
</g>
<g >
</g>
<g >
</g>
<g >
</g>
<g >
</g>
<g >
</g>
<g >
</g>
<g >
</g>
<g >
</g>
<g >
</g>
<g >
</g>
<g >
</g>
<g >
</g>
<g >
</g>
<g >
</g>
<g >
</g>
<g >
</g>
<g >
</g>
<g >
</g>
<g >
</g>
<g >
</g>
<g >
</g>
<g >
</g>
<g >
</g>
<g >
</g>
<g >
</g>
<g >
</g>
<g >
</g>
<g >
</g>
<g >
</g>
<g >
</g>
<g >
</g>
<g >
</g>
<g >
</g>
<g >
</g>
<g >
</g>
<g >
</g>
<g >
</g>
<g >
</g>
<g >
</g>
<g >
</g>
<g >
</g>
<g >
</g>
<g >
</g>
<g >
</g>
<g >
</g>
<g >
</g>
<g >
</g>
<g >
</g>
<g >
</g>
</g>
<g style="fill:#000000; fill-opacity:0.0; 
stroke:#000000; stroke-width:0.0500; stroke-opacity:1; 
stroke-linecap:round; stroke-linejoin:round;">
</g>
<g style="fill:#D0D2CD; fill-opacity:0.0; 
stroke:#D0D2CD; stroke-width:0.0500; stroke-opacity:1; 
stroke-linecap:round; stroke-linejoin:round;">
</g>
<g style="fill:#D0D2CD; fill-opacity:0.0; 
stroke:#D0D2CD; stroke-width:0.1000; stroke-opacity:1; 
stroke-linecap:round; stroke-linejoin:round;">
<path d="M1.6113 1.8325
L0.1113 3.3325
" />
<path d="M83.1113 1.8325
L1.6113 1.8325
" />
<path d="M84.6113 3.3325
L83.1113 1.8325
" />
<path d="M84.6113 184.8325
L84.6113 3.3325
" />
<path d="M83.1113 186.3325
L84.6113 184.8325
" />
<path d="M1.6113 186.3325
L83.1113 186.3325
" />
<path d="M0.1113 184.8325
L0.1113 3.3325
" />
<path d="M0.1113 184.8325
L1.6113 186.3325
" />
<g >
</g>
<g >
</g>
<g >
</g>
<g >
</g>
<g >
</g>
<g >
</g>
<g >
</g>
<g >
</g>
<g >
</g>
<g >
</g>
<g >
</g>
<g >
</g>
<g >
</g>
<g >
</g>
<g >
</g>
<g >
</g>
<g >
</g>
<g >
</g>
<g >
</g>
<g >
</g>
<g >
</g>
<g >
</g>
<g >
</g>
<g >
</g>
<g >
</g>
<g >
</g>
<g >
</g>
<g >
</g>
<g >
</g>
<g >
</g>
<g >
</g>
<g >
</g>
<g >
</g>
<g >
</g>
<g >
</g>
<g >
</g>
<g >
</g>
<g >
</g>
<g >
</g>
<g >
</g>
<g >
</g>
<g >
</g>
<g >
</g>
<g >
</g>
<g >
</g>
<g >
</g>
<g >
</g>
<g >
</g>
<g >
</g>
<g >
</g>
<g >
</g>
<g >
</g>
<g >
</g>
<g >
</g>
<g >
</g>
<g >
</g>
<g >
</g>
<g >
</g>
<g >
</g>
<g >
</g>
<g >
</g>
<g >
</g>
<g >
</g>
<g >
</g>
<g >
</g>
<g >
</g>
<g >
</g>
<g >
</g>
<g >
</g>
<g >
</g>
<g >
</g>
<g >
</g>
<g >
</g>
<g >
</g>
<g >
</g>
<g >
</g>
<g >
</g>
<g >
</g>
<g >
</g>
<g >
</g>
<g >
</g>
<g >
</g>
<g >
</g>
<g >
</g>
<g >
</g>
<g >
</g>
<g >
</g>
<g >
</g>
<g >
</g>
<g >
</g>
<g >
</g>
<g >
</g>
<g >
</g>
<g >
</g>
<g >
</g>
<g >
</g>
<g >
</g>
<g >
</g>
<g >
</g>
<g >
</g>
<g >
</g>
<g >
</g>
<g >
</g>
<g >
</g>
<g >
</g>
<g >
</g>
<g >
</g>
<g >
</g>
<g >
</g>
<g >
</g>
<g >
</g>
<g >
</g>
<g >
</g>
<g >
</g>
<g >
</g>
<g >
</g>
<g >
</g>
<g >
</g>
<g >
</g>
<g >
</g>
<g >
</g>
<g >
</g>
<g >
</g>
<g >
</g>
<g >
</g>
<g >
</g>
<g >
</g>
<g >
</g>
<g >
</g>
<g >
</g>
<g >
</g>
<g >
</g>
<g >
</g>
<g >
</g>
<g >
</g>
<g >
</g>
<g >
</g>
<g >
</g>
<g >
</g>
<g >
</g>
<g >
</g>
<g >
</g>
<g >
</g>
<g >
</g>
<g >
</g>
<g >
</g>
<g >
</g>
<g >
</g>
<g >
</g>
<g >
</g>
<g >
</g>
</g> 
</svg>
