<?xml version="1.0" standalone="no"?>
 <!DOCTYPE svg PUBLIC "-//W3C//DTD SVG 1.1//EN" 
 "http://www.w3.org/Graphics/SVG/1.1/DTD/svg11.dtd"> 
<svg
  xmlns:svg="http://www.w3.org/2000/svg"
  xmlns="http://www.w3.org/2000/svg"
  xmlns:xlink="http://www.w3.org/1999/xlink"
  version="1.1"
  width="84.4550mm" height="175.7680mm" viewBox="0.0000 0.0000 84.4550 175.7680">
<title>SVG Image created as kat_control_board-F_Courtyard.svg date 2023/05/26 09:39:04 </title>
  <desc>Image generated by PCBNEW </desc>
<g style="fill:#000000; fill-opacity:1.0000;stroke:#000000; stroke-opacity:1.0000;
stroke-linecap:round; stroke-linejoin:round;"
 transform="translate(0 0) scale(1 1)">
</g>
<g style="fill:#000000; fill-opacity:0.0; 
stroke:#000000; stroke-width:0.0000; stroke-opacity:1; 
stroke-linecap:round; stroke-linejoin:round;">
</g>
<g style="fill:#FF26E2; fill-opacity:0.0; 
stroke:#FF26E2; stroke-width:0.0000; stroke-opacity:1; 
stroke-linecap:round; stroke-linejoin:round;">
</g>
<g style="fill:#FF26E2; fill-opacity:0.0; 
stroke:#FF26E2; stroke-width:0.0500; stroke-opacity:1; 
stroke-linecap:round; stroke-linejoin:round;">
<path d="M43.7763 23.0365
L43.7763 24.8565
" />
<path d="M42.8563 23.0365
L43.7763 23.0365
" />
<path d="M43.7763 24.8565
L42.8563 24.8565
" />
<path d="M42.8563 24.8565
L42.8563 23.0365
" />
<path d="M51.5413 22.8025
L49.6813 22.8025
" />
<path d="M51.5413 21.8625
L51.5413 22.8025
" />
<path d="M49.6813 22.8025
L49.6813 21.8625
" />
<path d="M49.6813 21.8625
L51.5413 21.8625
" />
<path d="M30.1813 31.2525
L30.1813 33.1125
" />
<path d="M29.2413 31.2525
L30.1813 31.2525
" />
<path d="M30.1813 33.1125
L29.2413 33.1125
" />
<path d="M29.2413 33.1125
L29.2413 31.2525
" />
<path d="M51.5413 21.8025
L49.6813 21.8025
" />
<path d="M51.5413 20.8625
L51.5413 21.8025
" />
<path d="M49.6813 21.8025
L49.6813 20.8625
" />
<path d="M49.6813 20.8625
L51.5413 20.8625
" />
<path d="M60.3113 9.7825
L56.9113 9.7825
" />
<path d="M56.9113 9.7825
L56.9113 13.8825
" />
<path d="M60.3113 13.8825
L60.3113 9.7825
" />
<path d="M56.9113 13.8825
L60.3113 13.8825
" />
<path d="M27.0513 20.5525
L25.1913 20.5525
" />
<path d="M27.0513 19.6125
L27.0513 20.5525
" />
<path d="M25.1913 20.5525
L25.1913 19.6125
" />
<path d="M25.1913 19.6125
L27.0513 19.6125
" />
<path d="M27.0513 17.5525
L25.1913 17.5525
" />
<path d="M27.0513 16.6125
L27.0513 17.5525
" />
<path d="M25.1913 17.5525
L25.1913 16.6125
" />
<path d="M25.1913 16.6125
L27.0513 16.6125
" />
<path d="M33.9421 156.2950
L40.9421 156.2950
" />
<path d="M33.9421 159.7950
L33.9421 156.2950
" />
<path d="M40.9421 156.2950
L40.9421 159.7950
" />
<path d="M40.9421 159.7950
L33.9421 159.7950
" />
<path d="M34.2333 12.3405
L39.9533 12.3405
" />
<path d="M39.9533 12.3405
L39.9533 3.0405
" />
<path d="M34.2333 3.0405
L34.2333 12.3405
" />
<path d="M39.9533 3.0405
L34.2333 3.0405
" />
<path d="M38.0303 15.4865
L38.0303 13.6665
" />
<path d="M38.9503 15.4865
L38.0303 15.4865
" />
<path d="M38.0303 13.6665
L38.9503 13.6665
" />
<path d="M38.9503 13.6665
L38.9503 15.4865
" />
<path d="M57.4413 6.7025
L57.4413 4.8425
" />
<path d="M58.3813 6.7025
L57.4413 6.7025
" />
<path d="M57.4413 4.8425
L58.3813 4.8425
" />
<path d="M58.3813 4.8425
L58.3813 6.7025
" />
<path d="M44.2538 150.3825
L44.2538 153.7825
" />
<path d="M44.2538 153.7825
L48.0938 153.7825
" />
<path d="M48.0938 150.3825
L44.2538 150.3825
" />
<path d="M48.0938 153.7825
L48.0938 150.3825
" />
<path d="M56.1413 26.0125
L56.1413 24.1525
" />
<path d="M57.0813 26.0125
L56.1413 26.0125
" />
<path d="M56.1413 24.1525
L57.0813 24.1525
" />
<path d="M57.0813 24.1525
L57.0813 26.0125
" />
<path d="M33.3113 59.4825
L33.3113 136.7325
" />
<path d="M33.3113 136.7325
L39.4613 136.7325
" />
<path d="M39.4613 59.4825
L33.3113 59.4825
" />
<path d="M39.4613 136.7325
L39.4613 59.4825
" />
<path d="M27.0513 19.5525
L25.1913 19.5525
" />
<path d="M27.0513 18.6125
L27.0513 19.5525
" />
<path d="M25.1913 19.5525
L25.1913 18.6125
" />
<path d="M25.1913 18.6125
L27.0513 18.6125
" />
<path d="M24.6913 150.3825
L24.6913 153.7825
" />
<path d="M24.6913 153.7825
L28.5313 153.7825
" />
<path d="M28.5313 150.3825
L24.6913 150.3825
" />
<path d="M28.5313 153.7825
L28.5313 150.3825
" />
<circle cx="23.7552" cy="27.2263" r="3.7500" /> 
<path d="M48.1813 11.6125
L50.0413 11.6125
" />
<path d="M48.1813 12.5525
L48.1813 11.6125
" />
<path d="M50.0413 11.6125
L50.0413 12.5525
" />
<path d="M50.0413 12.5525
L48.1813 12.5525
" />
<circle cx="5.1113" cy="170.5825" r="3.7500" /> 
<path d="M36.1813 31.2325
L36.1813 33.0925
" />
<path d="M35.2413 31.2325
L36.1813 31.2325
" />
<path d="M36.1813 33.0925
L35.2413 33.0925
" />
<path d="M35.2413 33.0925
L35.2413 31.2325
" />
<path d="M38.1013 30.7425
L36.2813 30.7425
" />
<path d="M38.1013 29.8225
L38.1013 30.7425
" />
<path d="M36.2813 30.7425
L36.2813 29.8225
" />
<path d="M36.2813 29.8225
L38.1013 29.8225
" />
<path d="M55.1513 25.9925
L55.1513 24.1725
" />
<path d="M56.0713 25.9925
L55.1513 25.9925
" />
<path d="M55.1513 24.1725
L56.0713 24.1725
" />
<path d="M56.0713 24.1725
L56.0713 25.9925
" />
<path d="M53.6413 22.2725
L53.6413 20.4125
" />
<path d="M54.5813 22.2725
L53.6413 22.2725
" />
<path d="M53.6413 20.4125
L54.5813 20.4125
" />
<path d="M54.5813 20.4125
L54.5813 22.2725
" />
<path d="M55.3813 29.8125
L55.3813 26.8525
" />
<path d="M56.8413 29.8125
L55.3813 29.8125
" />
<path d="M55.3813 26.8525
L56.8413 26.8525
" />
<path d="M56.8413 26.8525
L56.8413 29.8125
" />
<path d="M57.7073 19.7271
L57.7073 14.2271
" />
<path d="M57.7073 14.2271
L50.0073 14.2271
" />
<path d="M50.0073 19.7271
L57.7073 19.7271
" />
<path d="M50.0073 14.2271
L50.0073 19.7271
" />
<path d="M40.7353 23.8575
L42.5953 23.8575
" />
<path d="M40.7353 24.7975
L40.7353 23.8575
" />
<path d="M42.5953 23.8575
L42.5953 24.7975
" />
<path d="M42.5953 24.7975
L40.7353 24.7975
" />
<path d="M27.0513 14.5525
L25.1913 14.5525
" />
<path d="M27.0513 13.6125
L27.0513 14.5525
" />
<path d="M25.1913 14.5525
L25.1913 13.6125
" />
<path d="M25.1913 13.6125
L27.0513 13.6125
" />
<path d="M56.4313 11.0575
L56.4313 1.6375
" />
<path d="M56.4313 11.0575
L45.7913 11.0575
" />
<path d="M56.4313 1.6375
L45.7913 1.6375
" />
<path d="M45.7913 11.0575
L45.7913 1.6375
" />
<path d="M27.0513 13.5525
L25.1913 13.5525
" />
<path d="M27.0513 12.6125
L27.0513 13.5525
" />
<path d="M25.1913 13.5525
L25.1913 12.6125
" />
<path d="M25.1913 12.6125
L27.0513 12.6125
" />
<path d="M40.9313 59.4825
L40.9313 136.7325
" />
<path d="M40.9313 136.7325
L47.0813 136.7325
" />
<path d="M47.0813 59.4825
L40.9313 59.4825
" />
<path d="M47.0813 136.7325
L47.0813 59.4825
" />
<path d="M33.1913 150.3825
L33.1913 153.7825
" />
<path d="M33.1913 153.7825
L37.0313 153.7825
" />
<path d="M37.0313 150.3825
L33.1913 150.3825
" />
<path d="M37.0313 153.7825
L37.0313 150.3825
" />
<path d="M39.1613 32.4400
L42.5613 32.4400
" />
<path d="M42.5613 32.4400
L42.5613 28.6000
" />
<path d="M39.1613 28.6000
L39.1613 32.4400
" />
<path d="M42.5613 28.6000
L39.1613 28.6000
" />
<path d="M27.0513 18.5525
L25.1913 18.5525
" />
<path d="M27.0513 17.6125
L27.0513 18.5525
" />
<path d="M25.1913 18.5525
L25.1913 17.6125
" />
<path d="M25.1913 17.6125
L27.0513 17.6125
" />
<path d="M49.3413 25.8525
L49.3413 28.8125
" />
<path d="M47.8813 25.8525
L49.3413 25.8525
" />
<path d="M49.3413 28.8125
L47.8813 28.8125
" />
<path d="M47.8813 28.8125
L47.8813 25.8525
" />
<circle cx="46.1113" cy="39.3325" r="3.4000" /> 
<path d="M17.1505 153.6050
L17.1505 155.4650
" />
<path d="M16.2105 153.6050
L17.1505 153.6050
" />
<path d="M17.1505 155.4650
L16.2105 155.4650
" />
<path d="M16.2105 155.4650
L16.2105 153.6050
" />
<path d="M32.5188 151.6425
L32.5188 153.5025
" />
<path d="M31.5788 151.6425
L32.5188 151.6425
" />
<path d="M32.5188 153.5025
L31.5788 153.5025
" />
<path d="M31.5788 153.5025
L31.5788 151.6425
" />
<path d="M47.4283 15.3315
L47.4283 13.5115
" />
<path d="M48.3483 15.3315
L47.4283 15.3315
" />
<path d="M47.4283 13.5115
L48.3483 13.5115
" />
<path d="M48.3483 13.5115
L48.3483 15.3315
" />
<path d="M39.0313 13.6925
L39.0313 21.9325
" />
<path d="M39.0313 21.9325
L47.2713 21.9325
" />
<path d="M47.2713 13.6925
L39.0313 13.6925
" />
<path d="M47.2713 21.9325
L47.2713 13.6925
" />
<path d="M38.6663 19.5297
L36.8463 19.5297
" />
<path d="M38.6663 18.6097
L38.6663 19.5297
" />
<path d="M36.8463 19.5297
L36.8463 18.6097
" />
<path d="M36.8463 18.6097
L38.6663 18.6097
" />
<path d="M23.9780 156.2950
L30.9780 156.2950
" />
<path d="M23.9780 159.7950
L23.9780 156.2950
" />
<path d="M30.9780 156.2950
L30.9780 159.7950
" />
<path d="M30.9780 159.7950
L23.9780 159.7950
" />
<path d="M49.6238 24.7975
L54.7238 24.7975
" />
<path d="M49.6238 29.8975
L49.6238 24.7975
" />
<path d="M54.7238 24.7975
L54.7238 29.8975
" />
<path d="M54.7238 29.8975
L49.6238 29.8975
" />
<path d="M47.5143 18.5335
L49.3343 18.5335
" />
<path d="M47.5143 19.4535
L47.5143 18.5335
" />
<path d="M49.3343 18.5335
L49.3343 19.4535
" />
<path d="M49.3343 19.4535
L47.5143 19.4535
" />
<path d="M33.1813 31.2325
L33.1813 33.0925
" />
<path d="M32.2413 31.2325
L33.1813 31.2325
" />
<path d="M33.1813 33.0925
L32.2413 33.0925
" />
<path d="M32.2413 33.0925
L32.2413 31.2325
" />
<path d="M31.1813 31.2325
L31.1813 33.0925
" />
<path d="M30.2413 31.2325
L31.1813 31.2325
" />
<path d="M31.1813 33.0925
L30.2413 33.0925
" />
<path d="M30.2413 33.0925
L30.2413 31.2325
" />
<path d="M60.4513 13.7625
L60.4513 11.9425
" />
<path d="M61.3713 13.7625
L60.4513 13.7625
" />
<path d="M60.4513 11.9425
L61.3713 11.9425
" />
<path d="M61.3713 11.9425
L61.3713 13.7625
" />
<path d="M38.1413 27.7625
L38.1413 25.9025
" />
<path d="M39.0813 27.7625
L38.1413 27.7625
" />
<path d="M38.1413 25.9025
L39.0813 25.9025
" />
<path d="M39.0813 25.9025
L39.0813 27.7625
" />
<path d="M51.5213 20.7925
L49.7013 20.7925
" />
<path d="M51.5213 19.8725
L51.5213 20.7925
" />
<path d="M49.7013 20.7925
L49.7013 19.8725
" />
<path d="M49.7013 19.8725
L51.5213 19.8725
" />
<path d="M61.4413 6.7125
L61.4413 4.8525
" />
<path d="M62.3813 6.7125
L61.4413 6.7125
" />
<path d="M61.4413 4.8525
L62.3813 4.8525
" />
<path d="M62.3813 4.8525
L62.3813 6.7125
" />
<path d="M34.9943 12.6620
L27.9943 12.6620
" />
<path d="M27.9943 12.6620
L27.9943 20.3620
" />
<path d="M34.9943 20.3620
L34.9943 12.6620
" />
<path d="M27.9943 20.3620
L34.9943 20.3620
" />
<circle cx="61.4289" cy="19.3325" r="3.4000" /> 
<path d="M37.1813 31.2325
L37.1813 33.0925
" />
<path d="M36.2413 31.2325
L37.1813 31.2325
" />
<path d="M37.1813 33.0925
L36.2413 33.0925
" />
<path d="M36.2413 33.0925
L36.2413 31.2325
" />
<path d="M45.6813 24.9415
L45.6813 26.7615
" />
<path d="M44.7613 24.9415
L45.6813 24.9415
" />
<path d="M45.6813 26.7615
L44.7613 26.7615
" />
<path d="M44.7613 26.7615
L44.7613 24.9415
" />
<circle cx="79.3613" cy="170.5825" r="3.7500" /> 
<path d="M52.6413 22.2625
L52.6413 20.4025
" />
<path d="M53.5813 22.2625
L52.6413 22.2625
" />
<path d="M52.6413 20.4025
L53.5813 20.4025
" />
<path d="M53.5813 20.4025
L53.5813 22.2625
" />
<path d="M34.0813 9.8925
L34.0813 11.7525
" />
<path d="M33.1413 9.8925
L34.0813 9.8925
" />
<path d="M34.0813 11.7525
L33.1413 11.7525
" />
<path d="M33.1413 11.7525
L33.1413 9.8925
" />
<path d="M59.4413 6.7125
L59.4413 4.8525
" />
<path d="M60.3813 6.7125
L59.4413 6.7125
" />
<path d="M59.4413 4.8525
L60.3813 4.8525
" />
<path d="M60.3813 4.8525
L60.3813 6.7125
" />
<path d="M32.0813 9.9025
L32.0813 11.7625
" />
<path d="M31.1413 9.9025
L32.0813 9.9025
" />
<path d="M32.0813 11.7625
L31.1413 11.7625
" />
<path d="M31.1413 11.7625
L31.1413 9.9025
" />
<path d="M58.4413 6.7025
L58.4413 4.8425
" />
<path d="M59.3813 6.7025
L58.4413 6.7025
" />
<path d="M58.4413 4.8425
L59.3813 4.8425
" />
<path d="M59.3813 4.8425
L59.3813 6.7025
" />
<path d="M17.8230 152.3450
L17.8230 155.7450
" />
<path d="M17.8230 155.7450
L21.6630 155.7450
" />
<path d="M21.6630 152.3450
L17.8230 152.3450
" />
<path d="M21.6630 155.7450
L21.6630 152.3450
" />
<path d="M43.6113 156.2950
L50.6113 156.2950
" />
<path d="M43.6113 159.7950
L43.6113 156.2950
" />
<path d="M50.6113 156.2950
L50.6113 159.7950
" />
<path d="M50.6113 159.7950
L43.6113 159.7950
" />
<path d="M45.4513 12.6225
L47.2713 12.6225
" />
<path d="M45.4513 13.5425
L45.4513 12.6225
" />
<path d="M47.2713 12.6225
L47.2713 13.5425
" />
<path d="M47.2713 13.5425
L45.4513 13.5425
" />
<path d="M25.6913 59.4825
L25.6913 136.7325
" />
<path d="M25.6913 136.7325
L31.8413 136.7325
" />
<path d="M31.8413 59.4825
L25.6913 59.4825
" />
<path d="M31.8413 136.7325
L31.8413 59.4825
" />
<path d="M36.0801 18.6169
L36.0801 20.4369
" />
<path d="M35.1601 18.6169
L36.0801 18.6169
" />
<path d="M36.0801 20.4369
L35.1601 20.4369
" />
<path d="M35.1601 20.4369
L35.1601 18.6169
" />
<path d="M43.5813 151.6425
L43.5813 153.5025
" />
<path d="M42.6413 151.6425
L43.5813 151.6425
" />
<path d="M43.5813 153.5025
L42.6413 153.5025
" />
<path d="M42.6413 153.5025
L42.6413 151.6425
" />
<path d="M40.6513 11.7425
L40.6513 9.9225
" />
<path d="M41.5713 11.7425
L40.6513 11.7425
" />
<path d="M40.6513 9.9225
L41.5713 9.9225
" />
<path d="M41.5713 9.9225
L41.5713 11.7425
" />
<path d="M24.1438 151.7125
L24.1438 153.5725
" />
<path d="M23.2038 151.7125
L24.1438 151.7125
" />
<path d="M24.1438 153.5725
L23.2038 153.5725
" />
<path d="M23.2038 153.5725
L23.2038 151.7125
" />
<path d="M41.6513 11.7425
L41.6513 9.9225
" />
<path d="M42.5713 11.7425
L41.6513 11.7425
" />
<path d="M41.6513 9.9225
L42.5713 9.9225
" />
<path d="M42.5713 9.9225
L42.5713 11.7425
" />
<path d="M54.2913 13.0525
L52.4313 13.0525
" />
<path d="M54.2913 12.1125
L54.2913 13.0525
" />
<path d="M52.4313 13.0525
L52.4313 12.1125
" />
<path d="M52.4313 12.1125
L54.2913 12.1125
" />
<path d="M37.9517 22.0269
L30.9517 22.0269
" />
<path d="M30.9517 22.0269
L30.9517 29.7269
" />
<path d="M37.9517 29.7269
L37.9517 22.0269
" />
<path d="M30.9517 29.7269
L37.9517 29.7269
" />
<path d="M54.6413 22.2625
L54.6413 20.4025
" />
<path d="M55.5813 22.2625
L54.6413 22.2625
" />
<path d="M54.6413 20.4025
L55.5813 20.4025
" />
<path d="M55.5813 20.4025
L55.5813 22.2625
" />
<path d="M32.1813 31.2325
L32.1813 33.0925
" />
<path d="M31.2413 31.2325
L32.1813 31.2325
" />
<path d="M32.1813 33.0925
L31.2413 33.0925
" />
<path d="M31.2413 33.0925
L31.2413 31.2325
" />
<path d="M50.6513 24.7425
L50.6513 22.9225
" />
<path d="M51.5713 24.7425
L50.6513 24.7425
" />
<path d="M50.6513 22.9225
L51.5713 22.9225
" />
<path d="M51.5713 22.9225
L51.5713 24.7425
" />
<path d="M39.4513 27.5425
L39.4513 25.7225
" />
<path d="M40.3713 27.5425
L39.4513 27.5425
" />
<path d="M39.4513 25.7225
L40.3713 25.7225
" />
<path d="M40.3713 25.7225
L40.3713 27.5425
" />
<path d="M45.3003 23.0365
L45.3003 24.8565
" />
<path d="M44.3803 23.0365
L45.3003 23.0365
" />
<path d="M45.3003 24.8565
L44.3803 24.8565
" />
<path d="M44.3803 24.8565
L44.3803 23.0365
" />
<path d="M40.4113 24.9525
L40.4113 28.3525
" />
<path d="M40.4113 28.3525
L44.6113 28.3525
" />
<path d="M44.6113 24.9525
L40.4113 24.9525
" />
<path d="M44.6113 28.3525
L44.6113 24.9525
" />
<path d="M48.5513 59.4825
L48.5513 136.7325
" />
<path d="M48.5513 136.7325
L54.7013 136.7325
" />
<path d="M54.7013 59.4825
L48.5513 59.4825
" />
<path d="M54.7013 136.7325
L54.7013 59.4825
" />
<path d="M15.1805 156.2950
L22.1805 156.2950
" />
<path d="M15.1805 159.7950
L15.1805 156.2950
" />
<path d="M22.1805 156.2950
L22.1805 159.7950
" />
<path d="M22.1805 159.7950
L15.1805 159.7950
" />
<circle cx="46.1113" cy="32.3325" r="3.4000" /> 
<path d="M60.4413 6.7125
L60.4413 4.8525
" />
<path d="M61.3813 6.7125
L60.4413 6.7125
" />
<path d="M60.4413 4.8525
L61.3813 4.8525
" />
<path d="M61.3813 4.8525
L61.3813 6.7125
" />
<path d="M27.0513 16.5525
L25.1913 16.5525
" />
<path d="M27.0513 15.6125
L27.0513 16.5525
" />
<path d="M25.1913 16.5525
L25.1913 15.6125
" />
<path d="M25.1913 15.6125
L27.0513 15.6125
" />
<path d="M49.6413 24.7625
L49.6413 22.9025
" />
<path d="M50.5813 24.7625
L49.6413 24.7625
" />
<path d="M49.6413 22.9025
L50.5813 22.9025
" />
<path d="M50.5813 22.9025
L50.5813 24.7625
" />
<path d="M35.1813 31.2425
L35.1813 33.1025
" />
<path d="M34.2413 31.2425
L35.1813 31.2425
" />
<path d="M35.1813 33.1025
L34.2413 33.1025
" />
<path d="M34.2413 33.1025
L34.2413 31.2425
" />
<circle cx="61.4289" cy="26.3325" r="3.4000" /> 
<path d="M57.4713 8.6225
L59.2913 8.6225
" />
<path d="M57.4713 9.5425
L57.4713 8.6225
" />
<path d="M59.2913 8.6225
L59.2913 9.5425
" />
<path d="M59.2913 9.5425
L57.4713 9.5425
" />
<path d="M45.5913 9.5275
L45.5913 12.4875
" />
<path d="M44.1313 9.5275
L45.5913 9.5275
" />
<path d="M45.5913 12.4875
L44.1313 12.4875
" />
<path d="M44.1313 12.4875
L44.1313 9.5275
" />
<path d="M44.0913 9.3525
L44.0913 12.3125
" />
<path d="M42.6313 9.3525
L44.0913 9.3525
" />
<path d="M44.0913 12.3125
L42.6313 12.3125
" />
<path d="M42.6313 12.3125
L42.6313 9.3525
" />
<path d="M27.0413 15.5525
L25.1813 15.5525
" />
<path d="M27.0413 14.6125
L27.0413 15.5525
" />
<path d="M25.1813 15.5525
L25.1813 14.6125
" />
<path d="M25.1813 14.6125
L27.0413 14.6125
" />
<path d="M27.0413 12.0525
L25.1813 12.0525
" />
<path d="M27.0413 11.1125
L27.0413 12.0525
" />
<path d="M25.1813 12.0525
L25.1813 11.1125
" />
<path d="M25.1813 11.1125
L27.0413 11.1125
" />
<path d="M33.9973 7.5365
L33.9973 9.3565
" />
<path d="M33.0773 7.5365
L33.9973 7.5365
" />
<path d="M33.9973 9.3565
L33.0773 9.3565
" />
<path d="M33.0773 9.3565
L33.0773 7.5365
" />
<path d="M34.1813 31.2425
L34.1813 33.1025
" />
<path d="M33.2413 31.2425
L34.1813 31.2425
" />
<path d="M34.1813 33.1025
L33.2413 33.1025
" />
<path d="M33.2413 33.1025
L33.2413 31.2425
" />
<g >
</g>
<g >
</g>
<g >
</g>
<g >
</g>
<g >
</g>
<g >
</g>
<g >
</g>
<g >
</g>
<g >
</g>
<g >
</g>
<g >
</g>
<g >
</g>
<g >
</g>
<g >
</g>
<g >
</g>
<g >
</g>
<g >
</g>
<g >
</g>
<g >
</g>
<g >
</g>
<g >
</g>
<g >
</g>
<g >
</g>
<g >
</g>
<g >
</g>
<g >
</g>
<g >
</g>
<g >
</g>
<g >
</g>
<g >
</g>
<g >
</g>
<g >
</g>
<g >
</g>
<g >
</g>
<g >
</g>
<g >
</g>
<g >
</g>
<g >
</g>
<g >
</g>
<g >
</g>
<g >
</g>
<g >
</g>
<g >
</g>
<g >
</g>
<g >
</g>
<g >
</g>
<g >
</g>
<g >
</g>
<g >
</g>
<g >
</g>
<g >
</g>
<g >
</g>
<g >
</g>
<g >
</g>
<g >
</g>
<g >
</g>
<g >
</g>
<g >
</g>
<g >
</g>
<g >
</g>
<g >
</g>
<g >
</g>
<g >
</g>
<g >
</g>
<g >
</g>
<g >
</g>
<g >
</g>
<g >
</g>
<g >
</g>
<g >
</g>
<g >
</g>
<g >
</g>
<g >
</g>
<g >
</g>
<g >
</g>
<g >
</g>
<g >
</g>
<g >
</g>
<g >
</g>
<g >
</g>
<g >
</g>
<g >
</g>
<g >
</g>
<g >
</g>
<g >
</g>
<g >
</g>
<g >
</g>
<g >
</g>
<g >
</g>
<g >
</g>
<g >
</g>
<g >
</g>
<g >
</g>
<g >
</g>
<g >
</g>
<g >
</g>
<g >
</g>
<g >
</g>
<g >
</g>
<g >
</g>
<g >
</g>
<g >
</g>
<g >
</g>
<g >
</g>
<g >
</g>
<g >
</g>
<g >
</g>
<g >
</g>
<g >
</g>
<g >
</g>
<g >
</g>
<g >
</g>
<g >
</g>
<g >
</g>
<g >
</g>
<g >
</g>
<g >
</g>
<g >
</g>
<g >
</g>
<g >
</g>
<g >
</g>
<g >
</g>
<g >
</g>
<g >
</g>
<g >
</g>
</g>
<g style="fill:#000000; fill-opacity:0.0; 
stroke:#000000; stroke-width:0.0500; stroke-opacity:1; 
stroke-linecap:round; stroke-linejoin:round;">
</g>
<g style="fill:#D0D2CD; fill-opacity:0.0; 
stroke:#D0D2CD; stroke-width:0.0500; stroke-opacity:1; 
stroke-linecap:round; stroke-linejoin:round;">
</g>
<g style="fill:#D0D2CD; fill-opacity:0.0; 
stroke:#D0D2CD; stroke-width:0.1000; stroke-opacity:1; 
stroke-linecap:round; stroke-linejoin:round;">
<path d="M84.3613 174.0825
L82.8613 175.5825
" />
<path d="M1.6113 2.0825
L82.8613 2.0825
" />
<path d="M82.8613 2.0825
L84.3613 3.5825
" />
<path d="M0.1113 174.0825
L1.6113 175.5825
" />
<path d="M0.1113 174.0825
L0.1113 3.5825
" />
<path d="M84.3613 3.5825
L84.3613 174.0825
" />
<path d="M82.8613 175.5825
L1.6113 175.5825
" />
<path d="M0.1113 3.5825
L1.6113 2.0825
" />
<g >
</g>
<g >
</g>
<g >
</g>
<g >
</g>
<g >
</g>
<g >
</g>
<g >
</g>
<g >
</g>
<g >
</g>
<g >
</g>
<g >
</g>
<g >
</g>
<g >
</g>
<g >
</g>
<g >
</g>
<g >
</g>
<g >
</g>
<g >
</g>
<g >
</g>
<g >
</g>
<g >
</g>
<g >
</g>
<g >
</g>
<g >
</g>
<g >
</g>
<g >
</g>
<g >
</g>
<g >
</g>
<g >
</g>
<g >
</g>
<g >
</g>
<g >
</g>
<g >
</g>
<g >
</g>
<g >
</g>
<g >
</g>
<g >
</g>
<g >
</g>
<g >
</g>
<g >
</g>
<g >
</g>
<g >
</g>
<g >
</g>
<g >
</g>
<g >
</g>
<g >
</g>
<g >
</g>
<g >
</g>
<g >
</g>
<g >
</g>
<g >
</g>
<g >
</g>
<g >
</g>
<g >
</g>
<g >
</g>
<g >
</g>
<g >
</g>
<g >
</g>
<g >
</g>
<g >
</g>
<g >
</g>
<g >
</g>
<g >
</g>
<g >
</g>
<g >
</g>
<g >
</g>
<g >
</g>
<g >
</g>
<g >
</g>
<g >
</g>
<g >
</g>
<g >
</g>
<g >
</g>
<g >
</g>
<g >
</g>
<g >
</g>
<g >
</g>
<g >
</g>
<g >
</g>
<g >
</g>
<g >
</g>
<g >
</g>
<g >
</g>
<g >
</g>
<g >
</g>
<g >
</g>
<g >
</g>
<g >
</g>
<g >
</g>
<g >
</g>
<g >
</g>
<g >
</g>
<g >
</g>
<g >
</g>
<g >
</g>
<g >
</g>
<g >
</g>
<g >
</g>
<g >
</g>
<g >
</g>
<g >
</g>
<g >
</g>
<g >
</g>
<g >
</g>
<g >
</g>
<g >
</g>
<g >
</g>
<g >
</g>
<g >
</g>
<g >
</g>
<g >
</g>
<g >
</g>
<g >
</g>
<g >
</g>
<g >
</g>
<g >
</g>
<g >
</g>
<g >
</g>
<g >
</g>
<g >
</g>
<g >
</g>
<g >
</g>
<g >
</g>
<g >
</g>
<g >
</g>
</g> 
</svg>
